<?xml version="1.0" encoding="UTF-8" standalone="no"?>
<!-- Created with Inkscape (http://www.inkscape.org/) -->

<svg
   width="210mm"
   height="297mm"
   viewBox="0 0 210 297"
   version="1.1"
   id="svg1"
   inkscape:version="1.4 (86a8ad7, 2024-10-11)"
   sodipodi:docname="fish-single.svg"
   xmlns:inkscape="http://www.inkscape.org/namespaces/inkscape"
   xmlns:sodipodi="http://sodipodi.sourceforge.net/DTD/sodipodi-0.dtd"
   xmlns="http://www.w3.org/2000/svg"
   xmlns:svg="http://www.w3.org/2000/svg">
  <sodipodi:namedview
     id="namedview1"
     pagecolor="#ffffff"
     bordercolor="#000000"
     borderopacity="0.25"
     inkscape:showpageshadow="2"
     inkscape:pageopacity="0.0"
     inkscape:pagecheckerboard="0"
     inkscape:deskcolor="#d1d1d1"
     inkscape:document-units="mm"
     inkscape:zoom="1.9275802"
     inkscape:cx="104.53521"
     inkscape:cy="99.866142"
     inkscape:window-width="1920"
     inkscape:window-height="1009"
     inkscape:window-x="-8"
     inkscape:window-y="-8"
     inkscape:window-maximized="1"
     inkscape:current-layer="layer1" />
  <defs
     id="defs1" />
  <g
     inkscape:label="Layer 1"
     inkscape:groupmode="layer"
     id="layer1">
    <path
       class="fil0 str0"
       d="M 17.352242,8.2218931 C 17.709502,11.5308 17.217172,16.289962 13.029615,25.060942"
       id="path4589-4"
       inkscape:connector-curvature="0"
       style="fill:none;fill-rule:evenodd;stroke:#2b2a29;stroke-width:0.2;stroke-linecap:round;stroke-linejoin:round;stroke-miterlimit:4;stroke-dasharray:none"
       transform="translate(-0.08728883,-0.0872975)" />
    <ellipse
       class="fil0 str0"
       transform="rotate(-165.3208,-0.04926661,-0.03802711)"
       rx="0.55231637"
       ry="1.3796906"
       id="ellipse4591-8"
       cx="-16.275921"
       cy="-1.8317033"
       style="fill:none;fill-rule:evenodd;stroke:#2b2a29;stroke-width:0.2;stroke-linecap:round;stroke-linejoin:round;stroke-miterlimit:4;stroke-dasharray:none" />
    <ellipse
       class="fil0 str0"
       transform="matrix(0.96446152,-0.26422331,-0.26422331,-0.96446152,-0.08728883,-0.0872975)"
       rx="0.55231833"
       ry="1.3796955"
       id="ellipse4593-4"
       cx="16.447891"
       cy="-10.362473"
       style="fill:none;fill-rule:evenodd;stroke:#2b2a29;stroke-width:0.2;stroke-linecap:round;stroke-linejoin:round;stroke-miterlimit:4;stroke-dasharray:none" />
    <path
       class="fil0 str0"
       d="m 20.501602,7.1167281 c -0.77271,1.629625 -1.7809,2.181017 -3.30826,0.367071 -1.27209,1.804421 -2.410996,2.032043 -3.354655,-0.03915"
       id="path4595-9"
       inkscape:connector-curvature="0"
       style="fill:none;fill-rule:evenodd;stroke:#2b2a29;stroke-width:0.2;stroke-linecap:round;stroke-linejoin:round;stroke-miterlimit:4;stroke-dasharray:none"
       transform="translate(-0.08728883,-0.0872975)" />
    <line
       class="fil0 str0"
       x1="13.208734"
       y1="30.118235"
       x2="13.707528"
       y2="25.758059"
       id="line4599-5"
       style="fill:none;fill-rule:evenodd;stroke:#2b2a29;stroke-width:0.2;stroke-linecap:round;stroke-linejoin:round;stroke-miterlimit:4;stroke-dasharray:none"
       transform="translate(-0.08728883,-0.0872975)" />
    <line
       class="fil0 str0"
       x1="10.996499"
       y1="29.303881"
       x2="12.588555"
       y2="25.823618"
       id="line4601-5"
       style="fill:none;fill-rule:evenodd;stroke:#2b2a29;stroke-width:0.2;stroke-linecap:round;stroke-linejoin:round;stroke-miterlimit:4;stroke-dasharray:none"
       transform="translate(-0.08728883,-0.0872975)" />
    <line
       class="fil0 str0"
       x1="9.665185"
       y1="27.742365"
       x2="11.712327"
       y2="24.839708"
       id="line4603-3"
       style="fill:none;fill-rule:evenodd;stroke:#2b2a29;stroke-width:0.2;stroke-linecap:round;stroke-linejoin:round;stroke-miterlimit:4;stroke-dasharray:none"
       transform="translate(-0.08728883,-0.0872975)" />
    <path
       class="fil0 str0"
       d="M 9.5592941,11.316309 C 6.8120671,11.125838 4.1490471,10.460413 1.5327711,9.5305751"
       id="path4605-3"
       inkscape:connector-curvature="0"
       style="fill:none;fill-rule:evenodd;stroke:#2b2a29;stroke-width:0.2;stroke-linecap:round;stroke-linejoin:round;stroke-miterlimit:4;stroke-dasharray:none"
       transform="translate(-0.08728883,-0.0872975)" />
    <path
       class="fil0 str0"
       d="m 9.5110091,13.029542 c -2.515079,0.0408 -5.077996,-0.0611 -7.728954,-0.422617"
       id="path4607-37"
       inkscape:connector-curvature="0"
       style="fill:none;fill-rule:evenodd;stroke:#2b2a29;stroke-width:0.2;stroke-linecap:round;stroke-linejoin:round;stroke-miterlimit:4;stroke-dasharray:none"
       transform="translate(-0.08728883,-0.0872975)" />
    <path
       class="fil0 str0"
       d="m 9.7248371,14.859692 c -2.265487,0.43274 -4.642885,0.64798 -7.113309,0.678"
       id="path4609-4"
       inkscape:connector-curvature="0"
       style="fill:none;fill-rule:evenodd;stroke:#2b2a29;stroke-width:0.2;stroke-linecap:round;stroke-linejoin:round;stroke-miterlimit:4;stroke-dasharray:none"
       transform="translate(-0.08728883,-0.0872975)" />
    <path
       class="fil0 str0"
       d="m 13.257997,13.486732 c 0.564338,1.53594 0.48368,2.77102 0.297336,3.97359"
       id="path4611-3"
       inkscape:connector-curvature="0"
       style="fill:none;fill-rule:evenodd;stroke:#2b2a29;stroke-width:0.2;stroke-linecap:round;stroke-linejoin:round;stroke-miterlimit:4;stroke-dasharray:none"
       transform="translate(-0.08728883,-0.0872975)" />
    <path
       class="fil0 str0"
       d="m 19.955092,17.074732 c 0.92294,-0.85842 1.49748,-1.94644 1.7206,-3.26484"
       id="path4613-80"
       inkscape:connector-curvature="0"
       style="fill:none;fill-rule:evenodd;stroke:#2b2a29;stroke-width:0.2;stroke-linecap:round;stroke-linejoin:round;stroke-miterlimit:4;stroke-dasharray:none"
       transform="translate(-0.08728883,-0.0872975)" />
    <path
       class="fil0 str0"
       d="m 24.144202,11.932855 c 2.41958,-0.173625 4.60041,-0.663927 6.61501,-1.3731"
       id="path4615-8"
       inkscape:connector-curvature="0"
       style="fill:none;fill-rule:evenodd;stroke:#2b2a29;stroke-width:0.2;stroke-linecap:round;stroke-linejoin:round;stroke-miterlimit:4;stroke-dasharray:none"
       transform="translate(-0.08728883,-0.0872975)" />
    <path
       class="fil0 str0"
       d="m 24.186122,14.284152 c 2.21345,0.33695 4.2559,0.30741 6.12813,-0.0916"
       id="path4617-80"
       inkscape:connector-curvature="0"
       style="fill:none;fill-rule:evenodd;stroke:#2b2a29;stroke-width:0.2;stroke-linecap:round;stroke-linejoin:round;stroke-miterlimit:4;stroke-dasharray:none"
       transform="translate(-0.08728883,-0.0872975)" />
    <path
       class="fil0 str0"
       d="m 23.473082,16.582452 c 1.65373,0.37369 3.32975,0.7114 5.03029,1.01693"
       id="path4619-6"
       inkscape:connector-curvature="0"
       style="fill:none;fill-rule:evenodd;stroke:#2b2a29;stroke-width:0.2;stroke-linecap:round;stroke-linejoin:round;stroke-miterlimit:4;stroke-dasharray:none"
       transform="translate(-0.08728883,-0.0872975)" />
    <path
       class="fil0 str0"
       d="M 0.12384911,6.0056921 C 4.3581711,8.6735011 8.6641091,10.103864 13.038353,10.291077 13.329015,6.0806601 14.130681,2.3081021 16.759912,0.09999714 c 2.93728,2.28943796 4.33193,5.67225796 4.18284,10.14655886 3.67048,-0.5279319 7.1006,-1.5627679 9.67286,-4.4130919 2.1027,6.3718519 -0.17213,11.1691279 -4.43877,15.2500179 -0.80183,-0.88721 -1.80731,-1.5865 -3.10993,-2.00493 -1.30373,-0.42034 -2.3081,-1.11772 -3.10993,-2.00493 -4.26553,4.08278 -6.540367,8.88006 -4.43877,15.25001 -3.752928,-0.80295 -6.3645779,-3.25479 -8.6574219,-6.16839 3.9512809,-2.10949 6.1821559,-5.00742 6.6964309,-8.69603 -3.224934,-1.17292 -6.8941969,0.0196 -10.6867399,1.87313 -2.02419399,-3.8839 -2.94011299,-8.326751 -2.74472799,-13.3277609 z"
       id="path4587-3-7"
       inkscape:connector-curvature="0"
       style="fill:none;fill-rule:evenodd;stroke:#2b2a29;stroke-width:0.0254;stroke-linecap:round;stroke-linejoin:round;stroke-miterlimit:4;stroke-dasharray:none"
       transform="translate(-0.08728883,-0.0872975)" />
  </g>
</svg>
