<?xml version="1.0" encoding="UTF-8" standalone="no"?>
<!-- Created with Inkscape (http://www.inkscape.org/) -->

<svg
   width="210mm"
   height="297mm"
   viewBox="0 0 210 297"
   version="1.1"
   id="svg1"
   inkscape:version="1.4 (86a8ad7, 2024-10-11)"
   sodipodi:docname="skallop-pathed-single.svg"
   xmlns:inkscape="http://www.inkscape.org/namespaces/inkscape"
   xmlns:sodipodi="http://sodipodi.sourceforge.net/DTD/sodipodi-0.dtd"
   xmlns="http://www.w3.org/2000/svg"
   xmlns:svg="http://www.w3.org/2000/svg">
  <sodipodi:namedview
     id="namedview1"
     pagecolor="#ffffff"
     bordercolor="#000000"
     borderopacity="0.25"
     inkscape:showpageshadow="2"
     inkscape:pageopacity="0.0"
     inkscape:pagecheckerboard="0"
     inkscape:deskcolor="#d1d1d1"
     inkscape:document-units="mm"
     inkscape:zoom="7.710321"
     inkscape:cx="109.26912"
     inkscape:cy="37.806468"
     inkscape:window-width="1920"
     inkscape:window-height="1009"
     inkscape:window-x="1912"
     inkscape:window-y="-8"
     inkscape:window-maximized="1"
     inkscape:current-layer="layer1" />
  <defs
     id="defs1">
    <clipPath
       clipPathUnits="userSpaceOnUse"
       id="clipPath1-7-3">
      <rect
         style="fill:#ff0000;stroke:#ff0000;stroke-width:0.0254"
         id="rect2-6-9"
         width="52.718227"
         height="32.742188"
         x="-7.0776043"
         y="-4.4979167" />
    </clipPath>
  </defs>
  <g
     inkscape:label="Layer 1"
     inkscape:groupmode="layer"
     id="layer1">
    <path
       id="path23155-5-9"
       clip-path="url(#clipPath1-7-3)"
       style="fill:none;stroke:#000000;stroke-width:0.0254;stroke-linecap:butt;stroke-linejoin:miter;stroke-dasharray:none;stroke-opacity:1"
       transform="translate(5.1150648e-7,-0.04474783)"
       d="M 6.2796272,4.2468503 C 6.8620821,3.791829 7.4034554,3.2271484 8.1189237,2.9938131 8.9150291,2.7385077 9.2552323,3.0156851 9.3951788,3.2388247 l 4.6747632,8.0555763 0.06262,-0.03626 L 9.5917392,3.1233083 C 9.4372831,2.7045145 9.4718918,2.4002859 9.8253654,2.0747018 10.050052,1.8677762 11.226471,1.0161544 12.226489,0.99289575 12.888787,1.0056955 13.255558,1.1850994 13.403685,1.5028187 l 1.605734,5.7732227 c 0.0042,0.00189 0.09868,-0.025291 0.09868,-0.025291 l -1.48701,-5.8082783 c -0.09152,-1.09141491 0.844253,-1.28632193 1.179577,-1.3020804 0.478472,-0.05049908 1.571796,-0.05556554 2.053594,-0.05585259 0.598965,-3.5686e-4 0.892855,0.19141464 0.898916,0.56851348 l 0.06951,9.61247141 0.09289,-0.0012 0.06294,-9.60981696 c 0.04004,-0.44772734 0.267111,-0.61583506 1.365561,-0.5953941 0.817318,0.07624706 1.265751,0.08420147 2.197742,0.37370228 0.598086,0.20668724 0.776688,0.33701362 0.708989,0.76644808 l -1.513564,5.7341592 0.08829,0.020779 1.666286,-5.6979701 c 0.156286,-0.38459971 0.353644,-0.44266544 1.439132,-0.2155727 0.798668,0.1670875 2.060285,0.7665103 2.36109,1.2380184 0.151998,0.2382557 0.147007,0.3138338 0.01419,0.6213948 l -4.589724,8.3308051 0.08838,0.05769 4.708285,-8.2763836 c 0.222655,-0.3572731 0.730413,-0.3632732 1.100918,-0.1850554 0.649418,0.4407671 1.253336,0.9299618 1.839206,1.4664912 0.638757,0.5849622 0.644562,0.9019539 0.426161,1.2554724 l -4.246732,4.4462132 0.07525,0.085171 4.342544,-4.3640475 c 0.378539,-0.311412 0.792741,-0.039812 1.505288,0.665206 0.481161,0.4947009 0.881824,1.0540607 1.235588,1.64452 0.276835,0.4730413 0.320102,0.9183388 -0.03337,1.1610909 l -8.818698,5.0311696 0.05299,0.08299 8.893389,-4.9330143 c 0.373374,-0.166087 0.582679,-0.038637 0.881725,0.3838112 0.292001,0.3864311 0.675615,1.0870481 0.811342,1.6542081 0.271765,1.135689 0.314794,1.716487 -0.372372,1.953067 l -5.53685,1.547102 0.02395,0.09102 5.582219,-1.407175 c 0.741678,-0.137629 0.97807,0.05254 1.129435,0.772822 0.116835,0.555993 0.229784,1.413998 0.20987,2.58682 -0.0075,0.443301 -0.113625,0.674202 -0.493574,0.728398 l -9.710819,0.134062 0.0033,0.08715 9.707629,0.01697 c 0.499646,0.03418 0.621102,0.36448 0.633513,1.304562 -0.03028,0.926132 0.047,1.789837 -0.08474,2.699616 -0.08587,0.593006 -0.414863,1.126439 -1.034041,1.307256 -2.262588,-0.02413 -13.093531,0.01217 -14.156081,-0.01031 -0.799889,-0.08037 -1.217491,-0.554438 -1.228791,-1.096388 -0.003,-1.686989 0.003,-3.742391 -0.005,-4.33769 -1.015841,0.011 -1.82515,0.0014 -2.830122,0.0064 -0.0061,1.496748 -0.0012,2.993521 -0.001,4.490278 0.0052,0.867155 -0.545714,0.945815 -1.459612,0.941384 -4.311102,-0.0209 -8.5722016,0.01049 -12.9317087,0.0056 -0.9822316,0.009 -1.93396148,-0.0797 -1.93361941,-1.422366 -0.02840232,-1.5146 -0.0157159,-1.524327 -0.01249302,-3.108398 0.0140037,-0.454574 0.18464099,-0.796703 0.74682518,-0.813233 l 9.53581695,-0.05115 6.17e-4,-0.0601 -9.48793105,-0.125259 C 0.38403273,17.623509 0.20865003,17.447202 0.15019833,16.607034 0.12264185,15.782147 0.25204076,14.978159 0.50093235,14.194029 0.74296793,13.507537 1.1726084,13.379447 1.4914709,13.469927 l 5.8413298,1.659659 0.020797,-0.07906 L 1.559168,13.232817 C 1.3068519,13.111584 1.0421528,12.891763 1.0458827,12.353933 1.0663479,11.431567 1.5213755,10.466311 2.1000135,9.7545997 2.6161941,9.18961 2.8682093,9.2967161 3.076227,9.3952611 l 8.264625,4.7014899 0.03853,-0.07571 L 3.1939866,9.2117621 C 2.8960983,9.0035803 2.7265942,8.5825476 3.122797,7.8555909 3.5675779,7.1266328 4.1335644,6.4158829 4.7958143,5.8685706 5.0218202,5.7206033 5.4592108,5.5403328 5.832349,5.8802194 l 4.357727,4.2189066 0.0705,-0.0739 L 5.9947311,5.7195419 C 5.5109494,5.1703332 5.7406557,4.7661781 6.2828572,4.2434403"
       sodipodi:nodetypes="cccccccccccccsccccccccccssccccssccccccccccccccccsscccccscccccsscccccccssscccccccccssccccc" />
  </g>
</svg>
