<?xml version="1.0" encoding="UTF-8" standalone="no"?>
<!-- Created with Inkscape (http://www.inkscape.org/) -->

<svg
   width="299mm"
   height="285mm"
   viewBox="0 0 299 285"
   version="1.1"
   id="svg1"
   xml:space="preserve"
   inkscape:version="1.4 (86a8ad7, 2024-10-11)"
   sodipodi:docname="truck-silhouette-cut2.svg"
   xmlns:inkscape="http://www.inkscape.org/namespaces/inkscape"
   xmlns:sodipodi="http://sodipodi.sourceforge.net/DTD/sodipodi-0.dtd"
   xmlns="http://www.w3.org/2000/svg"
   xmlns:svg="http://www.w3.org/2000/svg"><sodipodi:namedview
     id="namedview1"
     pagecolor="#ffffff"
     bordercolor="#000000"
     borderopacity="0.25"
     inkscape:showpageshadow="2"
     inkscape:pageopacity="0.0"
     inkscape:pagecheckerboard="0"
     inkscape:deskcolor="#d1d1d1"
     inkscape:document-units="mm"
     inkscape:zoom="4"
     inkscape:cx="538.75"
     inkscape:cy="537.375"
     inkscape:window-width="1920"
     inkscape:window-height="1009"
     inkscape:window-x="1912"
     inkscape:window-y="-8"
     inkscape:window-maximized="1"
     inkscape:current-layer="layer1" /><defs
     id="defs1" /><g
     inkscape:label="Layer 1"
     inkscape:groupmode="layer"
     id="layer1"><path
       id="path22"
       style="display:inline;fill:none;stroke:#000000;stroke-width:0.1;stroke-dasharray:none"
       d="m 10.368204,129.67938 -8.9238645,-0.0887 -0.63658778,-0.91013 c -0.72536441,-1.0356 -0.90648555,-7.84469 -0.23688646,-8.90552 0.32093145,-0.50847 2.10053164,-0.64839 10.40130474,-0.81787 L 20.9863,118.7527 11.805597,98.510522 2.6248928,78.268357 2.6248261,63.876279 C 2.6247504,47.073141 1.9974147,49.125802 8.4638338,44.770897 c 4.0815162,-2.748749 4.9860722,-3.054598 6.5580272,-2.21737 1.842575,0.981368 1.8889,1.27364 1.902542,12.003101 -0.146614,1.750238 0.512131,2.236478 1.4321,2.565863 2.179397,0.780315 3.058219,0.410214 3.488099,-1.265584 0.130366,-0.508204 1.036097,-4.159287 2.607333,-9.284052 1.571235,-5.124765 1.397017,-4.604155 3.53959,-11.231216 -1.573232,-0.72233 -3.415791,-2.000543 -4.654769,-3.239521 l 5e-6,6e-6 C 17.445684,26.21103 13.669849,17.853941 13.524951,10.385553 L 13.461472,7.1140889 24.001668,7.0049251 c 8.830735,-0.091451 11.551639,-0.1831364 13.006783,0.2308052 1.812638,-4.8857886 2.234012,-5.6327929 2.507448,-5.9277206 0.458362,-0.49438735 1.323162,-1.0064598 1.921783,-1.13793925 0.97042,-0.21313843 65.029208,1.82981255 77.630688,2.47578685 4.55765,0.2336337 4.93442,0.2330549 6.16891,0.6101901 0.76413,0.3408641 8.64048,3.7084023 17.71452,7.8791356 41.70579,19.169351 41.14494,18.769905 42.95204,19.670002 0.55051,0.333057 1.56655,0.676174 2.16598,2.173901 2.12706,5.314677 8.38867,22.316985 8.38867,22.777966 0,0.769869 -3.22683,10.341385 -3.18565,10.45024 0.0488,0.104785 3.11066,4.04e-4 4.72112,-10e-4 6.33127,-0.0061 6.28547,-0.119786 6.22754,16.286427 -0.0475,12.155273 -0.019,14.303991 0.008,26.459281 3.57781,-0.006 7.1026,0.0443 10.69873,0.0353 0.0475,-7.47127 -0.008,-19.030418 -0.0575,-19.400201 0.009,-35.972251 0.0473,-37.982466 0.76393,-39.535023 0.92168,-1.996992 2.20984,-3.226175 4.29336,-4.096717 1.7074,-0.713401 4.61311,-0.635639 31.53321,0.843844 20.14689,1.107245 24.46933,1.659423 28.33867,3.62017 1.87187,0.948548 4.85264,3.765685 5.71472,5.400985 0.86832,1.64716 11.54713,38.558343 11.9808,41.411503 0.71168,4.682129 0.24425,47.857359 -0.5658,52.263159 -1.26464,6.87809 -2.03566,8.49069 -4.77958,9.99645 -1.26477,0.69406 -20.93663,0.63487 -22.21709,0.35398 -1.88933,9.16273 -7.40562,18.14614 -18.86434,21.05891 -2.92172,0.74269 -8.97877,0.75626 -11.99109,0.0269 v -1e-5 c -7.92343,-1.91854 -14.93164,-8.48282 -17.58006,-16.4665 -0.88673,-2.67311 -0.79184,-3.98944 -1.06295,-7.88573 -0.0734,-4.20555 1.43243,-5.34377 -0.002,-5.28098 l -10.51846,-0.035 h -8.13788 v 4.13022 4.13023 l -1.39036,1.39036 -1.39037,1.39037 h -20.93736 -20.93736 l -1.39037,-1.39037 -1.39037,-1.39036 v -4.13023 -4.13022 h -7.264 l -10.3439,-0.0167 c 0.89125,4.17738 0.78233,8.83747 -0.55564,12.98582 -3.40406,10.5542 -12.78278,17.36043 -23.78064,17.25786 -2.00891,-0.0187 -4.70359,-0.2889 -5.98824,-0.60036 -6.692738,-1.62266 -13.148996,-6.91877 -16.175995,-13.26929 -0.911242,-1.91176 -1.857416,-4.45109 -2.102584,-5.64296 -0.628093,-3.0533 -0.693279,-7.28419 0.03041,-10.7521 -5.207993,0.17415 -10.41534,0.16567 -15.625575,0.1527 0.611728,3.59506 0.912737,5.56389 0.337437,9.08376 -1.49807,9.1668 -7.798681,16.82045 -16.325068,19.83083 -3.378902,1.19299 -10.830481,1.5075 -14.399782,0.6078 h 7.1e-5 c -5.56326,-1.40233 -12.020068,-6.15544 -14.935094,-10.99432 -2.378129,-3.94765 -3.382605,-7.30462 -3.620556,-12.09997 -0.160133,-3.22709 -0.0452,-4.94741 0.457288,-6.93552 l -7.86391,0.30265 c -4.041172,0.16117 -5.001729,0.001 -5.543364,-0.54038 l -4.3e-5,-3e-5 C 9.6701079,149.66195 9.393936,130.66296 10.363486,129.69346"
       sodipodi:nodetypes="cccsscccssscssscssscscssscscsscssccccssssssscsssscccccccccccsccccssssscccsccsscsssc"
       inkscape:label="outline" /><path
       id="path1"
       style="display:inline;fill:none;stroke:#00008b;stroke-width:0.1;stroke-dasharray:none;stroke-opacity:1"
       inkscape:label="horizontal cuts"
       d="m 15.279703,19.330626 c 4,0.43 9.873572,3.803364 7.833572,-0.816636 -2.04,-4.62 7.2,-4.62 4.62,0 -2.58,4.62 8.281964,1.592946 12.281964,1.502946 4,-0.09 11.3,1.84 8.04,-2.78 -3.26,-4.62 5.98,-4.62 4.62,0 -1.36,4.62 3.34,3.52 7.34,2.78 4,-0.74 12.408906,-1.279219 8.918906,3.340781 -3.5,4.62 5.74,4.62 4.62,0 -1.13,-4.62 2.461094,-4.440781 6.461094,-3.340781 4,1.1 10.07,-2.26 7.61,2.36 -2.46,4.62 6.78,4.62 4.62,0 -2.16,-4.62 3.77,-3.59 7.770001,-2.36 4,1.23 8.36,2.06 6.83,-2.56 -1.54,-4.62 7.7,-4.62 4.62,0 -3.09,4.62 4.55,3.3 8.55,2.56 4,-0.74 12.27,-1.68 8.71,2.94 -3.56,4.62 6.14002,4.489716 4.62,0 -1.04346,-3.082109 0.89738,-3.46723 2.98457,-4.352288 2.0366,-0.863603 3.51377,-1.204011 2.87838,-2.071675 -3.25659,-2.205677 1.22733,-4.076015 3.02419,-1.167585 1.80524,2.42381 4.73571,2.874838 5.1669,-2.196471 M 26.731845,39.33185 c 0.987139,0.505335 3.981265,0.888186 4.773221,-0.603105 1.129052,-2.126059 5.240521,-3.129449 3.186609,0.418101 -0.723004,1.248784 1.290491,1.903632 5.323564,0.87009 4.131514,-1.058769 10.22,-1.07 8.53,3.55 -1.69,4.62 7.55,4.62 4.62,0 -2.93,-4.62 2.85,-3.89 6.85,-3.55 4,0.34 9.47,3.07 8.65,-1.55 -0.81,-4.62 6.933291,-4.432911 4.62,0 -1.64848,3.146677 2.151224,1.50599 3.521927,1.500391 m 23.307294,-1.058331 c 4.12742,0.06939 10.59078,4.457943 7.99078,-0.162057 -2.59,-4.62 6.65,-4.62 4.62,0 -2.02,4.62 3.29,0.83 7.29,1.27 4,0.44 10.66844,3.803646 7.86844,-0.816354 -2.70883,-3.507067 6.50433,-3.802295 4.62,0 -1.82,4.62 3.51156,-0.323646 7.51156,0.816354 4,1.14 6.98652,-2.826772 5.81652,1.793228 -1.16,4.62 8.08,4.62 4.62,0 -3.45,-4.62 5.56348,-1.343228 9.56348,-1.793228 4,-0.45 11.16,3.43 9.04,-1.19 -2.12,-4.62 7.12,-4.62 4.62,0 m 0,0 c -2.5,4.62 2.34,0.52 6.34,1.19 M 2.6279992,60.628785 c 4,1.23 5.6798857,-1.108828 5.3780729,2.930234 -0.332097,4.444348 6.6212989,2.717358 4.6199999,0 -1.490343,-2.023584 3.058438,-2.775312 7.058438,-2.285312 4,0.49 8.500729,-2.826771 7.480729,1.793229 -1.02,4.62 8.22,4.62 4.62,0 -3.6,-4.62 4.23,-3.32 8.23,-3.05 4,0.27 9.89,-3.33 7.81,1.29 -2.08,4.62 7.16,4.62 4.62,0 -2.54,-4.62 3.528444,-2.225857 7.57,-1.29 1.751042,0.405469 8.212552,1.7 5.522552,-2.92 -2.69,-4.62 6.55,-4.62 4.62,0 -1.93,4.62 5.198791,1.85981 6.35452,-0.660502 m 29.034379,2.489096 c 2.27216,1.10099 8.27545,2.571029 7.37397,-0.618542 -1.02461,-3.625206 4.212,-2.72309 2.60255,0.628386 -1.11291,2.3175 3.39442,1.003104 4.49203,1.081562 4.1175,0.294321 10.26,3.22 7.02,-1.4 -3.23,-4.62 6.01,-4.62 4.62,0 -1.38,4.62 4.36,1.01 8.36,1.4 4,0.39 9.0443,0.774873 5.8743,-3.845127 -3.16,-4.62 6.08,-4.62 4.62,0 -1.45,4.62 5.5057,2.745127 9.5057,3.845127 4,1.1 9.06464,2.594524 6.18464,-2.025476 -2.87,-4.62 6.50726,-6.678929 4.75726,-2.058929 -1.74,4.62 4.78358,0.102976 8.78358,-0.857024 4,-0.96 8.27464,-0.655476 6.24464,3.964524 -2.03,4.62 6.52369,5.30631 3.93369,0.68631 -2.59,-4.62 2.52339,-2.526427 6.52339,-3.966427 m 18.50219,4.161561 c 4,-1.13 11.81179,-3.698657 9.00179,0.921343 -2.82,4.62 6.42,4.62 4.62,0 -1.81,-4.62 2.79,-1.28 6.79,-1.02 4,0.26 10.09,3.34 7.37,-1.28 -2.73,-4.62 6.51,-4.62 4.62,0 -1.9,4.62 4.01,1.86 8.01,1.28 4,-0.58 9.65,3.26 7.17,-1.36 -2.47,-4.62 6.77,-4.62 4.62,0 -2.14,4.62 1.9968,2.557414 5.9968,3.587414 M 3.5497328,80.274302 c 4.0000001,-0.41 7.1138252,0.0719 5.6648102,-2.610594 -1.647823,-3.050539 3.269612,-3.804104 3.450696,-0.04677 0.13198,2.738453 3.35,1.1 7.35,2.4 4,1.3 10.32,2.36 8.3,-2.26 -2.02,-4.62 7.22,-4.62 4.62,0 -2.6,4.62 3.08,3.47 7.08,2.26 4,-1.21 10.02,-2.12 6.51,2.5 -2.196012,2.629702 5.74,4.62 4.62,0 -1.11,-4.62 4.87,-2.46 8.87,-2.5 4,-0.04 10.6,-3.45 7.23,1.17 -3.37,4.62 5.87,4.62 4.62,0 -1.25,-4.62 4.15,-1.75 8.15,-1.17 4,0.58 10.4,3.7 7.23,-0.92 -3.17,-4.62 6.07,-4.62 4.62,0 -1.45,4.62 5.021771,-1.606319 8.150001,0.92 1.94948,1.574375 5.1599,1.8325 3.81292,-1.133854 -2.05153,-4.517934 7.22362,-4.739375 4.62,0 -1.88396,3.429375 1.51259,2.143341 5.50716,1.736046 m 6.27039,-3.616074 c 1.48646,-0.151563 6.32703,0.939924 5.10755,4.700028 -2.48625,4.884583 4.96781,5.41375 3.62781,0.79375 -0.15937,-2.966354 5.49623,-1.849537 6.90765,-0.735299 0.58107,0.458725 2.64129,-1.173322 1.58364,-2.605025 -1.76675,-1.620741 1.82688,-4.686028 3.26304,-1.590136 1.15773,2.122912 1.38135,2.229471 2.75672,2.256867 4.22771,0.08421 14.37776,0.12328 16.54312,0.193697 4.05358,0.131821 9.96,-1.13 8.03,3.49 -1.93,4.62 7.31,4.62 4.62,0 -2.69,-4.62 3.35,-3.5 7.35,-3.49 4,0.01 17.58706,-1.932941 14.04706,2.687059 -3.55,4.62 5.69,4.62 4.62,0 -1.08,-4.62 1.55184,-1.975848 5.55184,-2.985848 m 10.65902,0.216196 c 3.87201,-1.556807 8.95707,-1.855632 7.05707,2.764368 -1.9,4.62 7.34,4.62 4.62,0 -2.72,-4.62 4.78619,-1.455893 8.78619,-2.875893 4,-1.42 11.39,1.85 8.53,-2.77 -2.86,-4.62 6.38,-4.62 4.62,0 -1.76,4.62 2.85,1.6 6.85,2.77 4,1.17 10.93,-3.26 8.42,1.36 -2.51,4.62 6.73,4.62 4.62,0 -2.11,-4.62 2.96,-1.85 6.96,-1.36 4,0.49 6.68809,4.479466 6.91274,-0.291071 0.16262,-3.453274 7.1378,-3.110119 4.62,0 -3.61304,4.463013 5.78032,2.186818 6.33162,1.986491 M 12.581666,100.24538 c 4,1.28 7.125632,2.64568 6.145632,-1.974326 -0.99,-4.62 7.594853,-3.261176 4.62,0 -3.64,4.620006 0.760286,2.269606 2.928236,3.007646 2.338118,0.79598 5.889705,1.81824 2.599705,-2.801764 -3.29,-4.62 5.95,-4.62 4.62,0 -1.33,4.620004 2.52,2.620004 6.52,1.540004 4,-1.080004 8.97,-2.330004 7.14,2.29 -1.83,4.62 7.41,4.62 4.62,0 -2.79,-4.620004 4.24,-0.82 8.24,-2.29 4,-1.470004 10.116667,-3.780004 8.736667,0.84 -1.38,4.62 7.077115,5.07982 4.62,0 -1.354844,-2.800994 5.950625,-0.6399 6.643333,-0.84 3.975519,-1.148417 11.780089,-2.180004 8.720089,2.44 -3.07,4.62 6.17,4.62 4.62,0 -1.56,-4.620004 2.659911,-1.54 6.659912,-2.44 4,-0.900004 10.75,3.36 8.97,-1.260004 -1.78,-4.62 7.46,-4.62 4.62,0 -2.84,4.620004 2.41,1.13 6.41,1.260004 4,0.13 9.08485,0.96 8.02485,-3.660004 -1.06,-4.62 7.11622,-2.835595 4.62,0 -3.85389,4.377844 3.35515,2.67 7.35515,3.660004 4,0.99 11.54,3.72 7.84,-0.900004 -3.71,-4.62 5.53,-4.62 4.62,0 -0.92,4.620004 3.54,1.010004 7.54,0.900004 4,-0.110004 4.89404,0.17247 4.05493,2.40709 -2.72,4.62 4.08785,4.80709 4.62,0 0.21431,-1.63181 0.50353,-1.97662 1.15455,-2.447344 0.34543,-0.249762 3.85754,-0.308645 1.87716,-3.29162 -1.48099,-3.19786 4.58068,-3.203533 4.0875,-0.303325 -0.13937,1.676511 0.19734,3.644079 4.2016,3.649639 4.00426,0.25556 9.45426,1.60556 8.26426,-3.014444 -1.19,-4.62 8.05,-4.62 4.62,0 -3.43,4.620004 3.13723,3.560334 7.12,3.000004 2.0097,-0.282742 3.14308,-0.138726 4.18948,0.12321 m 10.71988,-5.7118 c 6.92359,-1.213608 4.0024,5.188586 5.09064,5.58859 3.77313,1.38689 9.96,-1.08001 8.39,3.54 -1.57,4.62 5.87441,1.90235 4.62,0 -3.04752,-4.621649 2.98825,-3.593802 6.99,-3.54 2.44706,0.0329 7.52853,1.4472 5.46265,-2.384128 -2.44099,-4.526985 6.98,-4.62 4.62,0 -2.36,4.620008 5.78845,1.30139 9.91735,2.384128 3.58821,0.94095 6.9778,-1.20507 6.23821,1.42464 -1.23,4.62 6.2256,4.27685 5.03179,1.23536 -3.4,-4.62001 4.73,-3.27001 8.73,-2.66 4,0.61 8.17912,-1.678539 6.03912,2.94147 -2.14,4.62 7.1,4.62 4.62,0 -2.48,-4.620009 3.0145,-3.799109 7.0145,-2.999099 M 20.985827,118.74911 c 4,-0.29 7.296501,1.24454 6.177767,-3.77053 -0.754557,-4.54734 7.269367,-4.73443 4.152278,0 -2.191645,4.36026 3.015569,4.18165 8.699367,5.03836 4.00563,0.60376 8.97,-1.91 7.94,2.71 -1.03,4.62 8.21,4.62 4.62,0 -3.59,-4.62 3.44,-2.88 7.44,-2.71 4,0.17 9.8075,3.01 8.2375,-1.61 -1.58,-4.62 7.66,-4.62 4.62,0 -3.05,4.62 3.1425,1.61 7.1425,1.61 4,0 8.8375,2.31705 5.9875,-2.30295 -2.85,-4.62 6.39,-4.62 4.62,0 -1.77,4.62 5.3925,2.66295 9.392501,2.30295 4,-0.36 10.38,-1.76 8.36,2.86 -2.01,4.62 7.23,4.62 4.62,0 -2.6,-4.62 3.02,-1.83 7.02,-2.86 m 0.17436,-2.17479 4.0123,-0.0839 0.0761,1.79052 c 0.0727,1.71048 4.57238,1.8282 4.14738,-0.4818 -0.84,-4.62 8.4,-4.62 4.62,0 -3.77,4.62 2.97,0.61 6.97,0.95 4,0.34 8.39,-1.4 7.54,3.22 -0.85,4.62 8.39,4.62 4.62,0 -3.77,-4.62 3.31083,-8.38104 7.31083,-7.32104 4,1.06 9.50729,4.21419 8.431,-0.60023 -1.59,-7.66019 7.56975,-2.02094 6.83159,2.69263 -0.98202,5.13449 2.43588,3.02095 5.26658,2.00867 4.01596,-1.43614 7.23494,1.17 4.73494,-3.45 -2.5,-4.62 6.74,-4.62 4.62,0 -2.12,4.62 6.64506,4.67 10.64506,3.45 4,-1.22 8.55,-1.45 6.24,3.17 -2.3,4.62 6.94,4.62 4.62,0 -2.31,-4.62 5.14,-3.94 9.14,-3.17 4,0.77 11.27,-1.91 7.82,2.71 -3.45,4.62 5.79,4.62 4.62,0 -1.17,-4.62 3.56,-3.7 7.56,-2.71 4,0.99 9.82,-1.66 6.78,2.96 -3.04,4.62 6.2,4.62 4.62,0 -1.58,-4.62 4.6,-3.12 8.6,-2.96 4,0.16 12.05946,2.30274 8.86946,-2.31726 -3.19,-4.62 6.94221,-4.62 5.51221,0 -1.43,4.62 1.61833,3.27726 5.61833,2.31726 4,-0.96 7.84912,1.49147 5.06912,-3.12853 -2.78,-4.62 6.46,-4.62 4.62,0 -1.84,4.62 4.12402,2.71545 8.12402,3.07545 m -288.1363169,19.504 c 3.9999999,0.22 4.1371429,-1.20473 3.9724999,2.24854 0.03125,3.45328 6.937798,2.01203 4.139583,0 -1.916012,-3.31601 6.4078,-1.4704 7.564167,-1.4936 1.897996,-0.0381 5.410963,2.34373 2.680963,-2.27627 -2.73,-4.62 6.51,-4.62 4.62,0 -1.89,4.62 3.345823,2.22038 7.345823,2.07038 4,-0.15 10.97,1.19 9.12,-3.43 -1.85,-4.62 7.39,-4.62 4.62,0 -2.77,4.62 2.590729,3.34938 6.590729,2.23938 4,-1.11 8.977812,-3.88531 7.406041,-0.58827 -1.581771,3.7601 5.74,4.62 4.62,0 -1.13,-4.62 4.007032,-2.45542 8.007032,-1.06542 4,1.39 8.056458,0.35172 6.383125,-2.84615 -2.770488,-5.29461 6.100109,-4.4545 4.62,0 -1.392239,4.19006 4.633073,6.69042 8.633074,5.69042 4,-1 9.53,-2.71 7.4,1.91 -2.13,4.62 7.11,4.62 4.62,0 -2.49,-4.62 3.98,-1.07 7.98,-1.91 4,-0.84 12.67,2.24 9.19,-2.38 -3.48,-4.62 5.76,-4.62 4.62,0 -1.14,4.62 2.19,3.49 6.19,2.38 4,-1.11 13.18284,2.22544 10.66969,-3.07849 -2.23321,-4.71313 5.89751,-4.27949 4.38849,0.39687 -0.9571,2.96599 2.7939,2.39615 4.94182,2.68162 4.0824,0.54257 11.36,3.22 8.1,-1.4 -3.26,-4.62 5.98,-4.62 4.62,0 -1.36,4.62 3.28,0.45 7.28,1.4 4,0.95 5.72735,-2.36324 4.90735,2.25676 -0.81,4.62 8.43,4.62 4.62,0 -3.8,-4.62 6.41598,-2.07383 10.47265,-2.25676 5.7844,-0.26083 9.37128,0.91777 9.51577,-1.87438 -1.37538,-3.06666 5.188,-4.98833 3.69348,-2.47071 -1.12705,4.74813 1.96718,4.28866 6.79075,4.34509 4.09538,0.0479 8.98,3.56 8,-1.06 -0.98,-4.62 8.26,-4.62 4.62,0 -3.64,4.62 3.38,0.92 7.38,1.06 4,0.14 10.05,1.58 9.03,-3.04 -1.01,-4.62 8.23,-4.62 4.62,0 -3.6,4.62 2.35,3.17 6.35,3.04 4,-0.13 8.29,-0.87 6.91,3.75 -1.39,4.62 7.85,4.62 4.62,0 -3.24,-4.62 4.47,-3.96 8.47,-3.75 4,0.21 8.7,-2.59 7.28,2.03 -1.42,4.62 7.56823,4.78459 4.62,0 -2.44506,-3.96801 4.74212,-2.46679 5.55078,-2.1631 m -76.89267,18.90565 c 4,1.48 7.46189,-1.66255 6.14189,2.95745 -1.32,4.62 7.92,4.62 4.62,0 -3.3,-4.62 4.68,-0.83 8.68,-1.73 4,-0.9 11.51,-3.16 8.16,1.46 -3.35,4.62 5.89,4.62 4.62,0 -1.27,-4.62 3.22,-1.53 7.22,-1.46 M 23.743172,159.79168 c 0.644097,0.0173 4.360676,-0.28499 3.759056,1.82921 -0.377682,1.32725 4.369472,4.66987 3.474204,0.0197 -0.385189,-2.00076 1.717792,-2.5636 4.58328,-2.59356 2.799342,-0.0237 5.187778,-0.68302 4.011101,2.67413 -2.64,4.62 6.6,4.62 4.62,0 -0.847468,-2.37494 1.5819,-1.84483 3.495061,-1.89127 3.325667,-0.0807 8.145206,-1.40951 5.379417,3.02865 -2.337952,3.75163 6.07533,3.98389 4.62,0 -1.325322,-3.628 0.980761,-2.72518 2.329948,-2.84156 3.07233,-0.26502 3.800301,0.90063 3.394375,3.14375 -0.587376,3.2458 5.104465,2.81516 4.62,0 -0.831437,-4.83137 3.21573,-3.99098 4.970666,-3.57161 m 14.83257,0.50227 c 2.50329,-1.03057 5.607309,-0.0179 5.668802,3.25693 0.05921,3.15314 5.45306,3.25555 3.991615,-0.8599 -0.832912,-3.17006 1.663899,-2.37295 2.521973,-2.47144 3.98741,-0.45767 10.14,1.96 7.95,-2.66 -2.18,-4.62 7.06,-4.62 4.62,0 -2.43,4.62 3.43,1.29 7.43,2.66 4,1.37 11.15706,0.3998 7.74158,-3.68424 -1.72434,-2.06187 5.11987,-4.74647 4.38615,-1.02899 -0.84101,4.26101 1.01917,2.34848 5.01917,2.60848"
       sodipodi:nodetypes="cssssssccssssccssssccccssssssccccccsccsccssccccsssssssssssccsssccsccsccsssccccsccsccccssssssccsssssssssccccsccsssssccccsssssssssssccccssssssssssccsssssssccsccscccsssccsssssssccsssccccssssccsssscccccsccssssccssssccssssssssssssccccsssssssccssssssssssssssssccsccssssccsccsssccsssssccsscccssssssccscsccsssc" /><path
       id="path1-1"
       style="display:inline;fill:none;stroke:#8b0000;stroke-width:0.1"
       d="m 58.359239,0.5488503 c -0.56,4 -1.729191,6.5369235 3.162926,6.0034973 4.613074,-0.8354116 4.613074,8.4045884 -0.0069,4.6245884 -4.62,-3.78 -0.17,4.84 -1.5,8.84 -1.33,4 -2.735208,9.400677 1.884792,7.950677 4.62,-1.44 4.62,7.8 0,4.62 -4.62,-3.17 -1.314792,3.429323 -1.884792,7.429323 -0.57,4 3.73,8.7 -0.89,6.81 -4.62,-1.88 -4.62,7.36 0,4.62 4.62,-2.73 0.42,4.57 0.89,8.57 0.47,4 3.6,7.82 -1.02,6.75 -4.62,-1.08 -4.62,8.16 0,4.62 4.62,-3.55 0.42,4.63 1.02,8.63 0.6,4 2.787604,9.482396 -1.832396,7.802396 -4.62,-1.68 -3.64552,6.233391 1.202457,3.564668 2.31235,-1.272907 1.492292,3.842187 2.692292,7.842191 m -5.803883,1.086169 c -0.717659,4.70158 1.50153,10.35375 6.12153,7.33375 4.62,-3.03 4.62,6.21 0,4.62 -4.62,-1.6 -2.32,3.75083 -2.38,7.75083 -0.06,4 -3.28,12.36 1.34,8.77 4.62,-3.6 4.62,5.64 0,4.62 -4.62,-1.03 0.08,2.61 -1.34,6.61 -1.42,4 3.23,9.3 -1.39,7.94 -4.62,-1.36 -4.62,7.88 0,4.62 4.62,-3.26 1.13,3.44 1.39,7.44 M 21.611909,56.546352 c -1.22,4 -4.049891,13.527461 0.570109,10.967461 3.846755,-2.260702 3.634766,7.064094 0,4.62 -4.62,-2.06 -2.306779,3.883123 -2.166779,7.883123 0.14,4 2.17,10.43 -2.45,7.83 -4.62,-2.6 -4.62,6.64 0,4.62 4.62,-2.02 3.405515,1.854504 2.874632,2.942743 m 0.545956,23.333361 c -0.74,4 -2.860588,12.7939 1.759412,9.4139 4.62,-3.37 4.62,5.87 0,4.62 -4.62,-1.24 -2.521535,2.94767 -2.671535,6.94767 M 37.006201,7.2274754 c 8.401323,4.5095586 2.4415,6.3321706 -0.678105,4.5583596 -3.492846,-1.9860364 -3.213065,4.902113 1.406935,3.762113 4.62,-1.14 2.640208,0.468988 2.280208,4.468988 -0.36,4 -1.69,12.93 2.93,9.13 4.62,-3.8 4.62,5.44 0,4.62 -4.62,-0.82 -2.49,2.25 -2.93,6.25 -0.44,4 0.92,10.85 -3.7,7.94 -4.62,-2.91 -4.62,6.33 0,4.62 4.62,-1.71 2.87,3.44 3.7,7.44 0.83,4 -3.78,11.67 0.84,9.15 4.62,-2.52 4.62,6.72 0,4.62 -4.62,-2.1 -0.27,2.23 -0.84,6.23 -0.57,4 -2.55,11.49 2.07,8.8 4.62,-2.68 4.62,6.56 0,4.62 -4.62,-1.93 -1.14,2.58 -2.07,6.580004 -0.93,4 -3.01,11.63 1.61,8.48 4.62,-3.15 4.62,6.09 0,4.62 -4.62,-1.47 -3.1,2.9 -1.61,6.9 1.49,4 3.52,7.86 -1.1,6.78 -4.62,-1.08 -4.62,8.16 0,4.62 4.62,-3.54 2.4,4.6 1.1,8.6 -1.3,4 -3.58,12.51 1.04,8.82 4.62,-3.7 4.62,5.54 0,4.62 -4.62,-0.93 -5.936982,1.59483 -5.756982,5.59483 m 13.630937,0.74531 c 0.18,4 -3.746161,9.97104 0.873839,8.95104 4.62,-1.01 4.62,8.23 0,4.62 -4.62,-3.6 -2.83,4.04381 -2.89,8.04381 M 79.893915,1.2059066 c -0.56,4 -1.498676,9.2410294 3.121324,6.8710294 4.62,-2.37 4.62,6.87 0,4.62 -4.62,-2.25 -2.32,3.32 -3,7.32 -0.68,4 -2.581741,10.364115 2.038259,8.714115 4.62,-1.65 5.008607,7.468772 0.388607,4.498772 -4.62,-2.97 -2.14536,1.94384 -2.41536,5.94384 m 0.527992,20.764725 c 0.67,4 2.980498,12.328548 -1.639502,8.598548 -4.62,-3.73 -4.62,5.51 0,4.62 4.62,-0.89 -1.098753,3.322899 1.1,6.86 0.862344,1.38724 5.869778,9.251034 0.280573,7.137605 -4.515897,-1.707583 -4.973428,5.260499 -0.361132,4.398218 4.386139,-0.82 3.997807,3.825074 3.324375,7.779378 m -3.243816,0.684803 c -0.505893,2.97054 -1.378778,8.13209 1.538423,6.22836 3.027629,-1.97579 3.418958,6.82515 -1.201042,5.61515 -4.62,-1.21 -0.607381,4.15649 -0.337381,8.15649 0.27,4 1.927708,6.97573 -2.692292,5.84573 -4.62,-1.14 -4.62,8.1 0,4.62 4.62,-3.49 2.043318,5.53887 2.692292,9.53427 0.315443,1.94202 -0.49728,3.5755 -2.638355,2.71385 -2.928637,-2.80395 -3.062807,5.85645 0.841899,3.35715 1.205632,-0.76493 1.369726,1.28875 1.989726,5.2887 M 100.18509,1.9035169 c 0.91,4 0.98,8.9900001 -3.639998,6.72 -4.62,-2.28 -4.62,6.9600001 0,4.6200001 4.619998,-2.35 4.050148,2.773419 3.470148,6.773419 -0.580001,4 -3.270001,12.34 1.35,9.12 4.62,-3.21 4.62,6.03 0,4.62 -4.620001,-1.4 -0.6,2.26 -1.35,6.26 -0.375,2 -0.009,4.015065 0.30993,4.471828 m 1.42958,14.973269 c -1.33,4 0.0905,9.904903 -4.529511,7.964903 -4.62,-1.93 -4.62,7.31 0,4.62 2.635626,-0.827917 1.646355,3.771563 1.136355,7.771563 -0.510001,4 1.559088,9.209449 5.243646,8.748437 4.81677,-0.602675 3.65091,6.351286 -1.6838,4.713544 -5.92962,-1.820379 -2.239998,3.765444 -1.9062,6.73646 0.47135,4.19528 2.28863,7.17287 -2.33137,7.94021 -4.688631,0.47556 -4.688631,7.99979 -0.06863,4.37979 4.62,-3.61 1.83,3.68 2.4,7.68 0.57,4 3.7,10.55 -0.92,9.06 -4.62,-1.5 -4.62,7.74 0,4.62 4.62,-3.13 0.65,2.32 0.92,6.32 0.27,4 -3.72,7.49 0.9,6.22 4.62,-1.26 4.62,7.98 0,4.62 -4.62,-3.35 -1.85,5.16 -0.9,9.16 M 119.4233,2.6592276 c -1.44,4.0000001 -0.84806,7.2677084 3.77194,4.9377084 4.62,-2.33 4.62,6.91 0,4.62 -4.62,-2.29 -4.48,3.8 -3.18,7.8 1.3,4 -1.55421,11.481209 2.70156,8.806667 3.45861,-2.173565 3.66914,7.101523 0,4.62 -4.40767,-2.981011 -2.55892,2.547162 -2.70156,6.573333 -0.0831,2.346354 1.51792,6.282813 -1.11771,5.235729 -4.62,-2.36 -4.62,6.88 0,4.62 2.83406,-1.257812 2.24688,6.210417 1.64688,10.210417 -0.6,4 0.4034,9.429503 -4.2166,6.789503 -4.85386,-1.340379 -4.62,6.59 0,4.62 4.62,-1.98 4.15064,1.304007 3.98744,3.334587 -0.1567,1.949705 0.43942,4.565773 -2.68387,3.363748 -5.27706,-2.030921 -4.62179,6.067466 0,4.713544 3.68455,-1.079367 1.93386,13.112472 2.38386,17.112476 0.45,4 -1.37615,7.61355 3.24385,5.16355 4.62,-2.45 4.62,6.79 0,4.62 -4.62,-2.17 -2.35385,6.21645 -3.24385,10.21645 -0.89,4 -2.8,9.46 1.82,7.52 4.62,-1.94 4.62,7.3 0,4.62 -4.62,-2.68 -1.64,3.86 -1.82,7.86 -0.18,4 -3.54,10.91 1.08,8.31 4.2587,-2.59 3.78603,5.20006 0,4.62 -4.01196,-0.52329 -0.57,3.07 -1.08,7.07 -0.51,4 3.04,11.79 -1.58,8.63 -4.62,-3.17 -4.62,6.07 0,4.62 4.62,-1.46 2.33,2.75 1.58,6.75 M 138.08642,17.887332 c 0.80988,3.759791 4.65926,11.033569 1.95692,10.131449 -3.48578,-1.227832 -3.2753,4.971977 0.0117,3.848259 2.56352,-1.016561 -0.43979,4.149896 -0.0398,8.149896 0.4,4 1.61557,11.609219 -3.00443,8.209219 -4.62,-3.4 -4.62,5.84 0,4.62 4.62,-1.22 1.1,3.27 1.45,7.27 0.35,4 0.68104,6.77427 4.93724,5.050989 3.29708,-2.130156 5.10475,3.47085 0.94777,3.85835 -3.35286,0.193752 0.12402,6.929639 0.383,10.824116 m -8.86072,1.904423 c 1.05674,1.873657 3.1332,5.839302 0.8232,5.134302 -2.45812,-0.973899 -2.82365,5.437797 0.59531,4.090833 4.62,-3.21 2.70863,5.037768 2.72863,9.037772 0.02,4 -1.04,10.04 3.58,6.66 4.62,-3.38 4.62,5.86 0,4.62 -4.62,-1.24 -4.29,4.72 -3.58,8.72 0.71,4 -0.48906,12.30549 3.33645,10.33563 3.86812,-1.99179 4.56254,5.49157 -0.37417,4.19906 -2.02114,-0.52917 -2.44228,1.46531 -2.96228,5.46531 -0.52,4 0.0916,9.01563 -4.52838,5.81563 -4.62,-3.21 -5.93878,5.39541 -1.31878,3.98541 2.05685,-0.65932 2.72947,0.3217 2.5597,1.42782 M 159.31177,18.652897 c 0.33,4 2.67347,10.35404 -1.94653,8.00404 -4.62,-2.36 -4.62,6.88 0,4.62 4.62,-2.27 3.35,4.74 2.65,8.74 -0.7,4 1.83,7.62 -2.79,6.53 -4.62,-1.1 -4.62,8.14 0,4.62 4.62,-3.53 1.72,4.85 2.79,8.85 1.07,4 2.7,11.51 -1.92,8.77 -4.62,-2.74 -4.62,6.5 0,4.62 4.62,-1.88 1.2,2.61 1.92,6.61 0.72,4 -1.91127,11.504115 2.70873,9.504115 4.62,-2.01 4.62,7.23 0,4.62 -4.62,-2.62 -2.16873,1.875885 -2.70873,5.875888 m 8.08121,4.23358 c 0.65269,0.44531 1.05073,2.12712 1.09326,3.0729 0.0368,0.81889 -1.17324,3.15966 -0.12669,4.30938 m -7.64461,4.93469 c -1.3,4 -3.45317,12.15945 1.16683,10.45945 4.62,-1.71 4.62,7.53 0,4.62 -4.62,-2.92 -2.89,4.37 -2.57,8.37 0.32,4 -1.71727,12.34332 3.55393,11.61633 2.86354,-0.39494 2.91449,5.75746 0.37417,4.62 -6.42364,-2.87627 -1.91285,2.05006 -3.18285,6.05006 M 184.51748,30.145807 c -0.37447,7.191987 -7.1198,-4.49307 -4.50224,9.87113 0.73623,4.040158 -1.61,8.01 3.01,6.85 4.62,-1.16 4.62,8.08 0,4.62 -4.62,-3.46 -2.98,4.53 -3.01,8.53 -0.03,4 3.58,9.7 -1.04,7.34 -4.62,-2.36 -4.62,6.88 0,4.62 4.62,-2.26 0.08,4.04 1.04,8.04 0.96,4 -1.47,11.8 3.15,8.71 4.62,-3.09 4.62,6.15 0,4.62 -4.62,-1.53 -3.13,2.67 -3.15,6.670003 m 0,20 c -1.26,4 1.01,8.9 -3.61,6.41 -4.62,-2.49 -4.62,6.75 0,4.62 4.62,-2.13 4.86,4.97 3.61,8.97 -1.25,4 1.02,10.75 -3.6,8.25 -4.62,-2.5 -4.62,6.74 0,4.62 4.62,-2.12 3.78793,5.41617 3.22793,9.41617 m 7.10288,-61.91767 c -0.1,4 -2.63341,5.93256 -4.40914,5.31084 -4.62,-2.1 -4.81374,4.82959 0.0378,4.22782 2.65833,-0.57119 3.78435,-0.92299 4.54435,3.07701 m 13.09621,7.01583 c 0.76,4 -4.14443,9.16158 0.47557,8.30158 4.62,-0.86 4.62,8.38 0,4.62 -4.62,-3.76 -3.24627,2.93786 -3.68778,7.00401 m 3.3321,0.0827 c -0.43239,3.9821 1.33558,7.05148 -2.94965,5.68055 -2.74311,-0.87758 -2.49735,5.96985 0.83592,4.20699 1.28717,-0.68074 2.91333,-0.87834 3.75911,1.36381 m 18.23473,-51.25962 c 0.66,4 -2.64,9.63706 2.25176,9.40118 3.82412,-0.73118 3.43589,6.56764 0,4.62 -3.92117,-1.27824 -2.49176,1.97882 -2.25176,5.97882 0.24,4 -2.85,10.48 1.77,8.64 4.62,-1.83 4.62,7.41 0,4.62 -4.62,-2.78 -2.14485,2.71559 -1.77,6.74 0.19176,2.05882 2.10654,3.58885 -1.86147,4.27471 -3.35033,0.0925 -3.48759,5.31759 1.13241,3.48759 2.69833,-1.01643 2.58138,0.31692 1.44087,3.49335 M 235.12479,45.939553 c 0.80756,1.529285 0.23187,4.511897 -2.19194,3.534933 -5.02503,-2.025437 -4.62,6.41 0,4.62 4.62,-1.79 2.74357,1.728333 2.42357,5.728333 -0.32,4 -2.19,9.72 2.43,6.74 4.62,-2.97 4.62,6.27 0,4.62 -4.62,-1.64 -1.73232,4.502738 -1.81232,8.502738 -0.08,4 3.14988,14.003869 -1.47012,10.493869 -4.62,-3.5 -4.62,5.74 0,4.62 4.62,-1.11 5.79126,1.217511 5.51126,5.217514 -0.28,4 1.47265,12.94294 -3.14735,10.28294 -4.62,-2.66 -4.62,6.58 0,4.62 4.62,-1.96 3.43735,1.09706 3.14735,5.09706 -0.29,4 -2.63,14.26987 1.99,10.77987 4.62,-3.5 4.62,5.74 0,4.62 -4.62,-1.13 -2.68899,1.72266 -1.99,4.60013 0.94742,3.90017 3.55,9.39 -1.07,7.36 -4.62,-2.02 -4.62,7.22 0,4.62 4.62,-2.59 0.89,4.02 1.07,8.02 0.18,4 3.5,9.45 -1.12,8.45 -4.62,-1 -4.62,8.24 0,4.62 4.62,-3.62 1.68,2.93 1.12,6.93 M 252.95872,46.897879 c -1.18988,2.249911 -0.72842,4.197232 1.66108,3.465536 2.01202,-1.32506 2.73265,4.346131 0.82357,3.762113 -4.1739,-0.319494 -0.82792,3.344434 -0.087,5.697291 1.26243,4.008786 2.04,10.42 -2.58,7.69 -4.62,-2.72 -4.62,6.52 0,4.62 4.62,-1.89 1.24979,3.804714 2.58,7.69 0.92304,2.696012 -0.10151,7.34759 -1.54904,6.621905 -3.38465,-2.703691 -4.48274,3.653809 0.34315,4.070952 4.62,-1.24 4.47471,5.501261 5.86471,9.501264 1.39,4 -0.83618,10.98371 3.55,7.83 2.08065,-1.49601 2.28655,5.5478 0,4.62 -4.60121,-1.867 -3.39,3.55 -3.55,7.55 -0.16,4 -1.08,9.78 3.54,7.68 4.62,-2.09 4.62,7.15 0,4.62 -4.62,-2.52 -4.64,3.7 -3.54,7.7 1.1,4 -1.18,12.33924 3.44,11.41924 4.62,-0.93 4.62,8.31 0,4.62 -4.62,-3.7 -3.28646,1.85949 -3.44,3.96076 -0.12944,1.7714 -0.41816,2.37346 2.36403,2.23692 2.30832,-0.30176 1.71251,4.19386 -0.17117,3.58009 -2.23517,-0.79445 -3.19576,-0.77994 -3.12425,1.78856 0.0723,2.59736 1.61644,5.98489 4.25999,5.90881 m 9.6304,-125.065136 c -0.02,4 -1.75088,10.740883 2.86912,9.780883 4.62,-0.96 6.48048,5.660678 0.87353,3.843529 -5.15383,-1.670294 -3.77439,1.09882 -3.39866,5.205752 0.20299,2.218847 -1.00734,4.426955 3.61266,2.296955 4.62,-2.13 4.57323,7.76481 -0.0468,5.27481 -4.62,-2.49 -2.85765,0.954706 -1.52765,4.954706 1.33,4 3.46,11.49 -1.16,8.76 -4.62,-2.73 -4.62,6.51 0,4.62 4.62,-1.89 6.12882,2.814118 5.81882,6.814121 -0.31,4 2.46,10.25 -2.16,6.53 -4.62,-3.71 -4.62,5.53 0,4.62 4.62,-0.9 1.53,4.85 2.16,8.85 0.63,4 1.99,7.48 -2.63,6.6 -4.62,-0.89 -4.62,8.35 0,4.62 4.62,-3.74 2.29,4.78 2.63,8.78 0.34,4 -3.14,12.24 1.48,8.55 4.62,-3.69 4.62,5.55 0,4.62 -4.62,-0.93 -0.87,2.83 -1.48,6.83 m -75.78728,-51.06997 c -0.1,4 -5.27202,4.86351 -6.12171,2.3897 -1.70959,-2.95989 -5.70379,-0.0472 -2.70433,2.39374 1.13697,3.00068 -2.35267,3.24798 -1.46038,6.91725"
       inkscape:label="vertical cuts"
       sodipodi:nodetypes="cccsccsccsccsssccccsccsssccccsssccccccssssssssssssccsssssssccccccccsssssccsssssccsssccsccccccsccsccccssssccsccsccccssssscccsccssssssssssccsccccccssssccccccsssssssccccccsccssssccccsccccsssccsssssssssccsssssccccccssccssccccsccsccccsssccsccssssccsccsssccccsccsccssssccsccsccsccsssssssssccsccsssccccc" /><path
       id="path22-5"
       style="display:none;fill:none;stroke:#000000;stroke-width:0.0114631;stroke-dasharray:none"
       d="m 203.21101,28.45154 c -0.0604,-0.135307 -0.0433,-0.879615 -0.0312,-1.022907 0.0106,-0.125535 0.004,-4.741434 0.004,-4.741434 l -1e-5,-1.64977 c -2e-5,-1.92617 -0.072,-1.69087 0.66932,-2.19007 0.46787,-0.3151 0.54854,-0.273836 0.75176,-0.25417 0.15751,0.01524 0.22329,0.225981 0.45829,0.196717 0.15144,-0.01886 0.35473,0.03808 0.51165,-0.320729 0.25164,-0.575394 0.0432,-0.100984 0.33559,-0.802179 -0.18036,-0.0828 -0.21032,-0.129939 -0.35235,-0.271959 v 0 c -0.6753,-0.6753 -1.10813,-1.63328 -1.12474,-2.4894 l -0.007,-0.375 1.20822,-0.012 c 1.01227,-0.0103 1.32418,-0.0211 1.49098,0.0264 0.20779,-0.56006 0.25609,-0.6457 0.28744,-0.6795 0.0526,-0.0567 0.15168,-0.11535 0.2203,-0.13043 0.11123,-0.0245 7.45437,0.20975 8.89888,0.28381 0.52245,0.0267 0.56564,0.0267 0.70715,0.0699 0.0876,0.0391 0.99046,0.42511 2.03064,0.9032 4.78077,2.19741 4.71648,2.15162 4.92362,2.2548 0.0631,0.0382 0.17958,0.0775 0.24829,0.24919 0.24384,0.60922 0.96161,2.55822 0.96161,2.61106 0,0.0883 -0.36989,1.18545 -0.36518,1.19792 0.005,0.012 0.35658,2.8e-4 0.5412,-10e-5 l 1.91881,-0.0071 c 0.01,-1.115728 0.0202,-1.667737 0.10277,-1.845707 0.10558,-0.22891 0.2533,-0.36981 0.49214,-0.46961 0.19573,-0.0817 0.52881,-0.0728 3.6147,0.0967 2.30945,0.12683 2.80493,0.19023 3.24848,0.41499 0.21457,0.10866 0.55626,0.43166 0.65509,0.61912 0.0996,0.18881 1.32365,4.41998 1.37337,4.74705 0.0816,0.5367 0.0279,5.48593 -0.0648,5.99098 -0.14499,0.78844 -0.23336,0.97328 -0.54789,1.14589 -0.145,0.0795 -2.39999,0.0728 -2.54677,0.0406 -0.21658,1.05033 -0.84891,2.08011 -2.16243,2.41401 -0.33493,0.0852 -1.02926,0.0867 -1.37456,0.003 v 0 c -0.90827,-0.21992 -1.71164,-0.97239 -2.01522,-1.88757 -0.10163,-0.30641 -0.0908,-0.45732 -0.12186,-0.90394 -0.009,-0.48208 0.16419,-0.61256 -2.4e-4,-0.60536 l -1.20573,-0.003 h -0.93286 v 0.47345 0.47346 l -0.15939,0.15939 -0.15939,0.15939 h -2.40006 -2.40008 l -0.15939,-0.15939 -0.15939,-0.15939 v -0.47346 -0.47345 h -0.83269 l -1.18574,-0.002 c 0.10215,0.47886 0.0896,1.01304 -0.0638,1.48858 -0.39022,1.20983 -1.4653,1.99003 -2.72601,1.97829 -0.23027,-0.002 -0.53918,-0.0331 -0.68644,-0.0689 -0.76719,-0.18601 -1.50728,-0.7931 -1.85426,-1.52108 -0.10437,-0.21915 -0.21293,-0.51022 -0.24102,-0.64685 -0.072,-0.35001 -0.0795,-0.83499 0.003,-1.23253 -0.59699,0.0199 -1.19392,0.019 -1.79117,0.0175 0.0701,0.41211 0.10455,0.63779 0.0387,1.04129 -0.17173,1.05079 -0.89398,1.92815 -1.87137,2.27324 -0.38733,0.13677 -1.24151,0.17279 -1.65065,0.0696 v 0 c -0.63772,-0.16076 -1.37786,-0.70559 -1.71202,-1.26029 -0.27261,-0.45252 -0.38775,-0.83732 -0.41504,-1.38702 -0.0183,-0.36992 -0.005,-0.56712 0.0524,-0.79503 l -0.90144,0.0348 c -0.46324,0.0185 -0.57336,10e-5 -0.63544,-0.062 h -2e-5 c -0.11123,-0.11124 -0.22355,-2.285046 -0.10761,-2.387646 -0.2288,0.0013 -0.66509,0.04783 -0.78305,-0.143356 z"
       sodipodi:nodetypes="cscssssscssscscssscscsscsccssssssscsssscccccccccccsccccssssscccsccsscssscc"
       inkscape:label="mini truck outline" /><path
       style="display:inline;fill:none;stroke:#ff00ff;stroke-width:0.1;stroke-dasharray:none"
       d="m 75.587318,53.882284 c -0.0604,-0.135307 -0.0433,-0.879615 -0.0312,-1.022907 0.0106,-0.125535 0.004,-4.741434 0.004,-4.741434 l -1e-5,-1.64977 c -2e-5,-1.92617 -0.072,-1.69087 0.66932,-2.19007 0.46787,-0.3151 0.54854,-0.273836 0.75176,-0.25417 0.15751,0.01524 0.22329,0.225981 0.45829,0.196717 0.15144,-0.01886 0.35473,0.03808 0.51165,-0.320729 0.25164,-0.575394 0.0432,-0.100984 0.33559,-0.802179 -0.18036,-0.0828 -0.21032,-0.129939 -0.35235,-0.271959 v 0 c -0.6753,-0.6753 -1.10813,-1.63328 -1.12474,-2.4894 l -0.007,-0.375 1.20822,-0.012 c 1.01227,-0.0103 1.32418,-0.0211 1.49098,0.0264 0.20779,-0.56006 0.25609,-0.6457 0.28744,-0.6795 0.0526,-0.0567 0.15168,-0.11535 0.2203,-0.13043 0.11123,-0.0245 7.45437,0.20975 8.89888,0.28381 0.52245,0.0267 0.56564,0.0267 0.70715,0.0699 0.0876,0.0391 0.99046,0.42511 2.03064,0.9032 4.78077,2.19741 4.71648,2.15162 4.92362,2.2548 0.0631,0.0382 0.17958,0.0775 0.24829,0.24919 0.24384,0.60922 0.96161,2.55822 0.96161,2.61106 0,0.0883 -0.36989,1.18545 -0.36518,1.19792 0.005,0.012 0.35658,2.8e-4 0.5412,-1e-4 l 1.91881,-0.0071 c 0.01,-1.115728 0.0202,-1.667737 0.10277,-1.845707 0.105582,-0.22891 0.253302,-0.36981 0.492142,-0.46961 0.19573,-0.0817 0.52881,-0.0728 3.6147,0.0967 2.30945,0.12683 2.80493,0.19023 3.24848,0.41499 0.21457,0.10866 0.55626,0.43166 0.65509,0.61912 0.0996,0.18881 1.32365,4.41998 1.37337,4.74705 0.0816,0.5367 0.0279,5.48593 -0.0648,5.99098 -0.14499,0.78844 -0.23336,0.97328 -0.54789,1.14589 -0.145,0.0795 -2.39999,0.0728 -2.54677,0.0406 -0.21658,1.05033 -0.84891,2.08011 -2.16243,2.41401 -0.33493,0.0852 -1.02926,0.0867 -1.37456,0.003 v 0 c -0.90827,-0.21992 -1.71164,-0.97239 -2.01522,-1.88757 -0.10163,-0.30641 -0.0908,-0.45732 -0.12186,-0.90394 -0.009,-0.48208 0.16419,-0.61256 -2.4e-4,-0.60536 l -1.205732,-0.003 h -0.93286 v 0.47345 0.47346 l -0.15939,0.15939 -0.15939,0.15939 h -2.40006 -2.40008 l -0.15939,-0.15939 -0.15939,-0.15939 v -0.47346 -0.47345 h -0.83269 l -1.18574,-0.002 c 0.10215,0.47886 0.0896,1.01304 -0.0638,1.48858 -0.39022,1.20983 -1.4653,1.99003 -2.72601,1.97829 -0.23027,-0.002 -0.53918,-0.0331 -0.68644,-0.0689 -0.76719,-0.18601 -1.50728,-0.7931 -1.85426,-1.52108 -0.10437,-0.21915 -0.21293,-0.51022 -0.24102,-0.64685 -0.072,-0.35001 -0.0795,-0.83499 0.003,-1.23253 -0.59699,0.0199 -1.19392,0.019 -1.79117,0.0175 0.0701,0.41211 0.10455,0.63779 0.0387,1.04129 -0.17173,1.05079 -0.89398,1.92815 -1.87137,2.27324 -0.38733,0.13677 -1.24151,0.17279 -1.65065,0.0696 v 0 c -0.63772,-0.16076 -1.37786,-0.70559 -1.71202,-1.26029 -0.27261,-0.45252 -0.38775,-0.83732 -0.41504,-1.38702 -0.0183,-0.36992 -0.005,-0.56712 0.0524,-0.79503 l -0.90144,0.0348 c -0.46324,0.0185 -0.57336,1e-4 -0.63544,-0.062 h -2e-5 c -0.11123,-0.11124 -0.22355,-2.285046 -0.10761,-2.387646 -0.2288,0.0013 -0.66509,0.04783 -0.78305,-0.143356 z"
       id="path22-5-3"
       inkscape:label="truck puzzle piece" /></g></svg>
