<?xml version="1.0" encoding="UTF-8" standalone="no"?>
<!-- Created with Inkscape (http://www.inkscape.org/) -->

<svg
   width="299mm"
   height="285mm"
   viewBox="0 0 299 285"
   version="1.1"
   id="svg1"
   xml:space="preserve"
   inkscape:version="1.4 (86a8ad7, 2024-10-11)"
   sodipodi:docname="whaleshark-silhouette-cut.svg"
   xmlns:inkscape="http://www.inkscape.org/namespaces/inkscape"
   xmlns:sodipodi="http://sodipodi.sourceforge.net/DTD/sodipodi-0.dtd"
   xmlns="http://www.w3.org/2000/svg"
   xmlns:svg="http://www.w3.org/2000/svg"><sodipodi:namedview
     id="namedview1"
     pagecolor="#ffffff"
     bordercolor="#000000"
     borderopacity="0.25"
     inkscape:showpageshadow="2"
     inkscape:pageopacity="0.0"
     inkscape:pagecheckerboard="0"
     inkscape:deskcolor="#d1d1d1"
     inkscape:document-units="mm"
     inkscape:zoom="0.71019737"
     inkscape:cx="477.3321"
     inkscape:cy="537.17462"
     inkscape:window-width="1920"
     inkscape:window-height="1009"
     inkscape:window-x="1912"
     inkscape:window-y="-8"
     inkscape:window-maximized="1"
     inkscape:current-layer="layer1" /><defs
     id="defs1" /><g
     inkscape:label="Layer 1"
     inkscape:groupmode="layer"
     id="layer1"
     transform="translate(0,4)"><path
       style="display:inline;fill:none;stroke:#000000;stroke-width:0.131007;stroke-dasharray:none"
       d="m 224.09435,254.27321 c -14.1693,-2.17263 -10.27765,-3.49276 -24.6252,-4.9929 -6.80228,-0.71123 -8.01103,-0.51874 -10.71158,1.70583 -3.59739,2.96336 -13.3479,10.26371 -16.38183,12.26534 -13.20978,8.71509 -26.22388,12.02845 -32.46486,12.21227 -3.29224,0.097 -12.77403,-0.88116 -13.59247,-1.40216 -0.20216,-0.12852 -0.83792,-0.81424 -1.41297,-1.52353 l -2e-5,3e-5 c -2.71533,-3.34928 -0.63772,-7.33081 5.36458,-10.2806 4.61751,-2.26923 8.22593,-5.25201 12.56821,-10.38901 4.19745,-4.96567 6.09843,-8.91036 6.31934,-13.11304 0.0417,-0.79277 0.50065,-2.51778 1.01993,-3.83334 l 0.94415,-2.39193 c -3.94042,-2.26581 -7.95973,-4.38577 -11.97084,-6.52214 l -31.41423,-17.68683 -5.34228,-1.14559 c -2.938268,-0.63007 -6.610614,-1.28853 -8.16076,-1.46321 -2.814729,-0.31722 -5.815999,-1.11646 -7.041983,-1.87533 -2.647572,-1.56611 -4.303689,-3.18302 -3.742136,-5.48107 0.287599,-1.17694 3.44348,-2.77089 3.066223,-4.64964 -0.612273,-3.04918 -8.014406,-9.15595 -10.243205,-11.37989 -8.679161,-8.6748 -13.18978,-13.90479 -18.434708,-21.37477 -2.937476,-4.18365 -2.59958,-3.92934 -11.483619,-8.64245 -3.280607,-1.7404 -3.433314,-1.86134 -3.777638,-2.99373 -0.327284,-1.07619 -0.248137,-1.35615 0.899407,-3.18146 1.249873,-1.98811 1.254712,-2.01374 0.724485,-3.84989 -0.592937,-2.05328 -6.022947,-20.94594 -7.780641,-34.19146 -0.520639,-3.92337 -1.220052,-7.68689 -1.554251,-8.363399 -1.261491,-2.553608 -5.419122,-5.3225 -12.659983,-8.431282 C 17.493149,89.274829 10.563596,85.354844 7.551263,83.008273 3.7939913,80.081375 0.34563926,75.351299 0.11664485,72.810264 c -0.1965214,-2.180788 0.12933624,-2.750881 1.85290305,-3.241692 0.2355209,-0.06707 17.7540601,0.713122 24.9320241,-1.689713 4.195367,-1.404398 5.001998,-2.110385 7.049099,-6.169622 0.957092,-1.897842 2.389411,-5.057004 3.182928,-7.020364 2.222386,-5.498749 7.694311,-15.346696 15.555297,-27.995225 7.042288,-11.33122 7.197098,-11.610336 9.77699,-17.6275334 2.23974,-5.2238457 2.811977,-6.3211577 3.93038,-7.5367997 L 67.70525,0.10652388 68.484744,1.3086279 c 1.078752,1.663604 1.141659,2.172774 1.01659,8.2283692 -0.391673,18.9640819 -2.193826,27.2805939 -12.064182,55.6733989 -4.319812,12.42626 -6.957856,21.003569 -6.88057,22.371418 0.07581,1.341965 4.870222,8.765946 10.644519,16.482716 l 4.14452,5.53872 2.113558,0.60655 c 3.672032,1.05379 4.812607,1.05658 5.650388,0.0138 1.208717,-1.36581 2.68653,-4.35575 4.880238,-3.32875 1.068707,0.61702 1.818671,2.30323 3.732378,8.39184 1.776455,5.65191 2.399949,7.15607 3.14447,7.58592 0.957533,0.55283 6.744692,1.94718 22.614167,6.86126 9.5086,2.94441 9.51633,2.94493 12.84239,0.85791 3.99326,-2.50566 4.11709,-2.67104 12.47799,-16.66675 6.89207,-11.53696 7.763,-12.87721 8.84563,-13.6124 1.79838,-1.221249 3.48283,-1.255638 5.48973,-0.11207 2.42634,1.38258 4.08524,4.11444 6.01657,9.90803 1.8942,5.68217 2.82304,10.22071 4.39995,21.49919 1.87464,13.40797 2.41669,15.01351 5.71076,16.91535 0.88217,0.50933 5.88277,2.59021 11.11242,4.6242 27.00758,10.5041 59.92914,25.08429 72.93843,32.13723 1.62726,0.88217 2.45499,1.33646 2.79518,1.52727 l 12.31203,7.01213 c 8.61145,4.77494 24.85767,18.25784 29.81822,24.74645 2.44109,3.19303 4.71942,7.38506 5.40567,9.94619 0.48419,1.80701 0.48875,2.77504 0.023,4.86579 -0.51077,2.2927 -0.92997,3.2117 -3.44808,7.55903 -2.71004,4.67801 -2.97678,5.03614 -4.87852,6.54081 -1.77422,1.4037 -2.05616,1.75771 -2.38645,2.99645 -0.5981,2.24319 -1.92575,3.58573 -5.17995,5.23822 -8.85258,3.08444 -18.65349,6.49816 -28.0645,7.39594 -5.89596,0.33373 -8.99748,-0.36899 -14.42248,-3.26776 -6.46876,-3.22132 -9.60336,-4.71458 -15.19443,-5.5719 z"
       id="path1"
       sodipodi:nodetypes="ssssscsssssscccsscssssscsssssssssssssscssssscsssssssssssssssccssscssssss"
       inkscape:label="outline" /><path
       id="path10"
       style="fill:none;stroke:#00008b;stroke-width:0.113661;stroke-opacity:1"
       d="m 156.93536,127.28963 c -2.6631,-0.36543 -4.72734,0.13933 -3.91266,3.03315 2.01815,7.1686 -7.2363,3.8342 -5.70268,-0.85022 1.91069,-5.8362 -4.93747,-4.73548 -6.19246,-5.09758 -4.40644,-1.27137 -7.41086,-3.68137 -5.10354,1.68344 2.30731,5.36481 -8.42229,5.36482 -5.36481,0 1.52874,-2.68241 0.20605,-3.3432 -3.44336,-2.89941 M 49.82664,31.337999 c 4.519488,0.686101 6.066855,-5.30242 7.86979,-1.202239 0.169864,5.508545 7.044954,2.924007 5.182009,-1.388515 -1.732563,-3.46233 2.591153,-2.54694 5.508354,-2.512694 m -20.554847,8.584416 c 3.46427,3.24969 8.84916,9.214271 2.913043,9.662235 -5.936116,0.447965 -0.571306,9.740088 2.682405,4.646063 3.253712,-5.094027 5.175325,1.863444 7.546984,5.743954 M 24.99175,68.421372 c 0.268411,5.539087 6.475178,3.908291 9.283237,4.175389 6.323376,0.342363 0.938059,3.52464 6.363039,4.733769 6.197398,1.381287 0.761654,8.53536 -2.694355,4.087813 -2.571129,-3.308792 -2.91818,-2.184406 -4.013285,-0.551772 -2.22405,4.395081 4.128432,6.102596 7.664952,9.115034 0.885568,0.754335 6.123126,-3.613528 4.620196,3.086013 -0.319138,1.422608 2.270682,2.634232 6.86878,-0.650705 M 117.785,131.9219 c -0.0443,4.19903 13.28167,7.93107 7.60688,10.84948 -5.68462,2.91273 3.60749,8.27754 4.64606,2.6824 1.02873,-5.60081 5.48608,0.0265 9.9909,1.35843 1.14736,0.33924 8.90525,-2.08321 7.16827,2.46073 -2.01148,4.99968 7.35724,5.19062 5.77736,-0.17419 -1.59127,-5.36481 2.21535,-3.92234 6.76177,-5.16126 m -0.0207,14.24084 c 4.55679,1.20031 8.76448,5.51453 4.33297,8.89968 -5.47427,4.18171 2.12636,7.59274 4.64606,2.68241 2.34918,-4.578 6.83477,-2.62667 10.70767,-0.21597 1.94605,1.21132 2.66841,6.1383 5.93664,1.69447 4.03454,-5.48581 7.91381,2.97752 2.6824,4.64607 -6.29331,1.93436 -2.2219,8.48978 0.90923,10.95649 m 9.2178,-6.14748 c 4.70455,0.94437 10.03204,9.17974 10.53907,3.27772 0.50702,-5.90202 9.79915,-0.53721 4.64607,2.68241 -5.1531,3.21961 1.14113,3.97933 5.44219,5.62258 4.30105,1.64324 12.40524,3.72355 7.17341,6.8977 -5.222,3.17983 4.53765,8.6918 5.11357,2.82956 0.58577,-5.85655 5.26934,-2.29111 7.84636,-1.26821 m -0.47208,3.00734 c 3.28546,1.29724 10.92797,2.04824 6.85613,5.45805 -5.82244,2.83316 3.46969,8.19797 4.64606,2.6824 1.08104,-5.04973 7.19117,-0.80056 8.20995,3.1254 1.71649,4.20602 5.13305,6.58077 6.15192,0.97427 1.01888,-5.6065 10.311,-0.24169 4.64606,2.68241 -5.66493,2.92409 5.54242,4.41252 8.88873,7.70944 3.3463,3.29694 9.82904,-0.26961 6.95342,5.09521 -2.87562,5.36481 7.854,5.36481 5.3648,0 -2.48918,-5.36482 3.10027,-2.48697 7.64672,-2.36194 M 36.65589,109.96315 c 3.795263,2.51931 11.017281,9.56793 10.500596,3.07488 -0.526526,-6.49874 8.765596,-1.13393 4.646062,2.6824 -3.613174,3.06693 -1.856398,3.83732 -0.02327,5.6953 3.403134,3.1985 13.176467,2.81208 8.9585,6.57159 -4.217967,3.7595 5.074156,9.12431 4.646061,2.6824 -0.428094,-6.44191 5.839671,0.65669 6.157321,1.98191 1.08452,4.52459 10.484554,11.03184 8.884512,4.3621 -1.298807,-5.41404 8.046292,-0.30813 4.646062,2.68241 -4.110888,3.61559 -0.549483,3.23443 4.217579,4.07053 4.767077,0.8361 9.651623,2.99272 7.907684,4.70809 -3.234809,3.54581 3.180813,8.11756 4.646063,2.68241 1.04007,-3.85802 4.36167,-2.01842 7.56589,1.52459 3.20423,3.54302 6.73369,2.5381 2.15152,6.08733 -4.58217,3.54924 4.70995,8.91404 4.64606,2.68241 -0.0639,-6.23164 8.12104,3.46322 12.45619,5.04741 4.33515,1.58419 6.29865,7.04889 7.40612,1.49354 1.09763,-5.56103 10.38975,-0.19622 4.64606,2.68241 -5.75353,2.87294 4.11773,4.18855 7.63452,7.19018 3.5168,3.00164 7.38752,7.27561 9.17418,2.11239 1.78666,-5.16322 11.07879,0.20159 4.64606,2.6824 -6.43272,2.48082 2.76446,4.98381 3.71851,5.45398 0.17699,0.0872 4.7591,1.91352 2.56476,3.15157 -5.47871,3.09111 3.98937,8.69752 4.87043,3.01146 0.87124,-5.69175 10.41097,4.13581 14.39947,6.32045 3.98849,2.18462 8.67817,8.5307 7.8268,1.84442 -0.85135,-6.68628 9.25968,-0.93548 5.46498,3.06839 -3.79471,4.00388 1.61648,5.63689 6.39491,6.45331 4.77845,0.81641 9.55824,6.85459 10.14815,0.26252 0.35042,-3.91577 8.3094,-0.059 4.64607,2.68241 -4.45765,3.3358 0.68244,4.70647 5.8817,5.43193 2.40124,0.49372 3.7632,4.72414 4.8369,6.4721 1.07369,1.74797 2.95392,2.49695 3.09886,-1.33746 0.16074,-4.25187 7.66155,-1.39996 3.85246,3.20638 -2.8139,3.40286 3.02876,3.6427 6.90927,6.01437 3.88051,2.37165 8.9971,3.46382 6.05862,6.05216 -5.10473,4.49645 4.97489,7.56531 5.25489,2.07895 0.20811,-4.07789 4.21843,-0.77302 8.1007,1.60187 0.70394,0.43061 3.23132,1.99754 1.17463,4.33656 -3.94074,4.48172 6.44269,7.28408 5.18201,1.38851 -1.25919,-5.88863 9.93212,-0.32342 14.70314,-0.56297 M 77.923197,163.45337 c 4.056684,2.06652 9.210952,9.34716 9.511268,3.32579 0.310147,-6.01567 9.602271,-0.65087 4.646062,2.68241 -4.946378,3.33896 2.109188,2.18896 5.529368,5.35793 3.420175,3.16897 9.451235,2.34705 5.942885,5.32022 -4.411084,3.7382 2.44532,7.70023 4.64607,2.68241 2.12498,-4.84513 4.9454,1.41288 9.09775,3.36349 3.16395,1.4863 9.83927,1.91398 4.35151,4.94037 -5.48776,3.02639 3.80436,8.3912 4.64606,2.6824 0.8417,-5.70879 4.49436,0.99913 10.03694,5.08562 1.21107,0.8929 10.72048,3.02814 4.77992,5.7931 -5.94055,2.76497 3.35158,8.12978 4.64607,2.68241 1.29449,-5.44737 6.41294,0.24961 10.9129,1.54835 4.49997,1.29873 9.57734,2.73396 5.97951,6.8515 -3.58799,4.12322 5.70413,9.48803 4.64606,2.6824 -1.04823,-6.79994 5.24764,-0.72087 9.06114,1.83222 1.83825,1.23069 6.63496,6.30468 6.93597,1.84975 0.29111,-4.30849 9.5342,-0.0919 4.64606,2.6824 -3.80039,2.15703 4.67991,7.11398 8.36465,6.42235 4.76694,-0.86485 13.51707,-2.41997 10.92088,2.43843 -2.60717,4.85547 7.75685,7.63251 5.182,1.38851 -2.58581,-6.24691 6.00386,-0.75644 10.51601,-0.0299 m -77.94598,14.12721 c 2.05443,1.24099 4.16735,4.03144 1.79566,4.88119 -4.9643,1.77868 0.0813,7.75787 3.37919,3.12023 1.81628,-2.55407 2.90703,0.80469 3.92073,1.96607 2.99933,3.43606 3.86396,4.9644 5.20945,2.74592 2.11397,-3.48554 5.70183,2.55804 2.60067,3.24991 -3.60927,0.80522 -0.12046,3.17767 0.58657,3.75347 M 62.642779,167.084 c 16.710013,1.47192 1.162509,-10.818 10.494859,-10.21682 5.364809,1.63672 4.253625,-6.84931 -1.111184,-3.12122 -5.364807,3.73946 -6.126376,-5.72328 -8.290331,-10.86927 m 87.395657,89.63729 c 4.45451,1.37749 6.09044,3.25593 4.00456,6.37991 -2.2143,3.38207 4.31854,8.01515 4.64606,2.68241 0.33481,-5.4512 0.6121,-3.26616 5.1007,-1.94775 0.009,-1.29529 1.04001,-1.17164 1.56001,-1.75746"
       inkscape:label="horizontal"
       sodipodi:nodetypes="csssssccccccsscccsscssccccsccccsssscccssscccccccssssscccccsssssscsssssccssssscsssssscsssssssssccccssssssssssccssscccccsscsscccccccscc" /><path
       fill="none"
       stroke="#000000"
       stroke-width="0.1"
       d="m 2.05,0.05 h 296 a 2,2 0 0 1 2,2 v 196 a 2,2 0 0 1 -2,2 h -296 a 2,2 0 0 1 -2,-2 v -196 a 2,2 0 0 1 2,-2"
       id="path3"
       style="display:none" /><path
       id="path1-2"
       style="fill:none;stroke:#8b0000;stroke-width:0.113661"
       d="m 36.661698,109.95935 c 6.164194,0.52149 1.700043,-8.9788 6.414311,-5.84465 4.711324,3.14513 4.795609,-6.294487 -0.504747,-5.792721 -4.34183,0.486333 -1.728018,-3.822436 -0.935569,-8.316931 M 139.5454,146.64782 c 0.95475,-4.54645 -3.4896,-11.67004 1.87521,-7.73736 5.36481,3.92131 5.36481,-6.80831 0,-5.36481 -5.36481,1.43213 0.25257,-3.78816 -1.1,-8.33461 -1.35257,-4.54645 0.89298,-9.32586 3.76785,-6.892 4.69571,3.97538 6.33325,-7.01198 0,-5.3648 -4.74542,1.2342 1.67757,-8.06127 -1.35574,-13.2353 M 33.924575,84.128278 c -2.588211,3.755483 -11.660478,-7.246545 -10.702332,-1.30216 0.742828,4.608538 -6.001548,2.891909 -5.164082,-1.099491 1.012374,-4.825029 -8.866987,-4.376363 -9.9164075,1.714621 M 65.352377,109.60231 c -1.436539,4.4204 -4.438318,5.14699 -0.259514,6.19327 6.346944,1.1186 1.287372,8.49983 -2.682405,4.64606 -3.183332,-2.98314 -3.488089,0.54287 -6.509408,4.0483 -3.021319,3.50544 -8.969506,12.12692 -3.034402,10.70485 5.935102,-1.42207 3.158073,8.94195 -1.388515,5.18201 -4.546589,-3.75994 -2.978346,2.22817 -6.943205,3.79984 m 39.391045,-22.59401 c -0.894758,0.72816 -2.385232,1.19036 -4.250777,-0.94323 -3.725405,-4.27702 -8.734786,4.77539 -2.326977,4.40635 6.413494,-0.37888 -0.955256,5.67817 -2.126025,10.25201 -1.170771,4.57385 -8.556752,4.51332 -2.605379,7.21893 4.926602,2.23971 -2.478098,7.59433 -3.599537,1.40802 -1.132846,-6.24925 -11.559686,2.34395 -7.970279,6.11946 3.08624,3.24627 -3.977357,7.47308 -4.699625,1.26622 -0.635236,-5.45898 -7.981985,-2.71962 -13.800863,-2.1129 m 57.780889,-21.6487 c -2.848613,1.86888 -6.506095,6.79018 -2.41936,7.7348 5.99476,0.49673 0.833375,8.08324 -3.278479,4.47555 -1.903802,-2.31973 -1.600361,0.91696 -5.340247,4.00753 -3.739878,3.09056 -7.101159,9.52294 -1.353319,9.37208 5.983491,-0.15706 0.319206,10.10194 -2.682399,4.64606 -2.613449,-4.75033 -3.994093,2.34499 -7.330399,5.66856 -3.336307,3.32357 -3.347294,2.19389 -7.368219,-1.57129 m 49.787162,-26.436 c -2.68665,3.69867 -8.59342,7.58821 -2.38451,7.56369 6.21459,-0.0343 0.84978,9.25777 -2.68241,4.64606 -3.5265,-4.62154 -4.47642,4.79608 -5.0267,5.86498 m 0.89917,9.43888 c -0.85578,4.7557 -4.14421,6.00877 -7.0683,0.34384 -2.91841,-5.67479 -8.283221,3.61734 -2.68241,4.64606 5.6065,1.01887 -2.23179,5.67399 -3.787085,6.86991 -4.717668,3.62759 -11.53388,0.1585 -9.073121,4.50579 2.075659,3.66695 -4.010728,7.07681 -4.193807,1.59074 -0.137108,-4.10888 -3.879656,1.11988 -8.665389,0.82543 m 64.351262,-34.92925 c -1.41685,4.43177 -3.24232,11.34439 -6.49602,6.25036 -3.2594,-5.08418 -8.62421,4.20795 -2.68241,4.64607 5.93611,0.44796 0.54817,5.12004 -2.18769,8.79027 -2.73586,3.67023 -6.89644,14.19217 -9.58753,8.12365 -2.69677,-6.05868 -8.06158,3.23346 -2.6824,4.64606 5.37349,1.42246 3.41328,3.11605 0.90381,6.917 -2.50947,3.80095 -16.53593,11.12942 -17.613868,5.55702 -1.068094,-5.57809 -10.360218,-0.21328 -4.646059,2.6824 5.723997,2.89 -2.939813,3.84474 -10.603409,7.31891 m 68.597126,-50.57504 c 5.71944,2.77796 9.18477,3.20279 6.68516,7.00942 m 0,0 c -2.49963,3.80664 -2.98469,8.53325 -6.57375,3.9034 -3.00757,-3.87975 -6.43552,4.83873 -2.27414,4.91411 5.81613,0.10536 -1.83129,5.87343 -4.07499,9.82783 m -6.04154,-2.76198 c 0.0341,4.54645 0.85361,11.34862 -4.5112,7.5296 -5.36481,-3.81902 -5.36481,6.9106 0,5.36481 5.36481,-1.54579 2.64255,6.44234 0.74337,10.59565 -1.89918,4.15329 -13.395,6.66035 -8.55669,9.40904 4.83832,2.74865 -2.74868,10.33566 -3.7935,3.79349 -1.04481,-6.54218 -6.89114,-0.83059 -11.16206,0.79626 m 65.7645,-56.49435 c -0.0967,2.89951 -1.04687,4.75516 -3.81084,3.02186 -5.61273,-3.51979 -5.83746,4.30963 -1.1995,4.58546 3.53796,0.21041 3.54929,1.46238 3.6743,6.00883 m 1.50274,0.87211 c -2.16495,3.99986 -9.32023,7.91406 -4.04903,9.5137 5.2655,1.60947 -0.0993,10.9016 -2.68241,4.64606 -2.58879,-6.2457 -1.60352,2.02721 -4.63468,5.52696 m -17.12502,-9.12849 c -3.93804,3.3858 -4.06311,13.59666 1.30169,10.41414 5.36482,-3.18251 5.36482,7.54711 0,5.36481 -5.3648,-2.18229 6.8387,9.1614 4.4572,13.03624 -2.3815,3.87482 -9.19919,4.84554 -6.73772,6.70834 4.78912,3.03521 -1.49211,9.1048 -3.7935,3.79349 -1.94441,-5.82914 -8.16407,0.68992 -9.47264,5.1842 m 71.50561,-57.55359 c -0.28787,2.10149 -3.22656,8.43254 -5.28028,4.87304 -2.20992,-3.83025 -6.97447,2.26581 -2.64609,3.37206 2.77647,0.7096 -0.82323,2.70106 -2.11072,5.40565 -1.38698,2.91364 -2.11405,12.62639 -4.89038,6.70553 -2.77634,-5.92088 -8.14115,3.37124 -2.68241,4.64606 5.45874,1.2748 0.44802,5.19264 -2.83906,8.54463 -3.2871,3.35198 -6.48303,8.99292 0.0193,8.51376 5.25186,-0.38701 1.13393,8.7656 -2.6824,4.64606 -3.81634,-4.11953 -6.77268,2.3843 -8.70309,6.52688 -0.71051,1.52472 -3.9237,4.69664 -1.05191,4.81026 3.93449,0.15566 0.61076,5.19395 -1.73072,2.6787 -2.59496,-2.78757 -4.41311,3.2907 -5.71892,3.66298 m 5.45295,13.2668 c -4.00245,2.42719 -7.37385,11.82144 -10.02608,6.88668 -2.6442,-4.94279 -7.96658,-0.95923 -3.48494,2.62114 3.50719,2.08433 -1.70668,2.50859 -5.72521,4.91972 -4.01853,2.41112 -7.91488,10.90993 -9.98041,5.38846 -2.07355,-5.51343 -9.66054,2.07356 -3.79349,3.79349 5.85902,1.72798 -1.98797,4.18998 -5.86183,6.74576 m 97.43451,-97.4066 c -0.0948,0.23586 -2.59485,7.44194 -5.82015,2.2987 -3.21961,-5.1531 -8.5809,4.13292 -2.67888,4.63994 5.9077,0.49719 2.94189,5.95531 -0.71925,9.09133 m -3.87672,-1.40464 c -3.66114,3.13602 -1.80134,9.1599 -5.39035,4.64663 -3.58901,-4.51326 -8.95382,4.77886 -2.68241,4.64606 6.27142,-0.13279 -0.0751,7.00224 -3.29336,10.39401 -3.2182,3.39176 -3.41257,9.68428 -7.00726,5.18086 -3.58902,-4.51327 -8.95383,4.77885 -2.68241,4.64606 6.2771,-0.14264 0.60974,5.89381 -1.67646,9.85978 l -3.84479,6.67073 m 50.89424,-55.24159 c -0.12753,0.28476 -4.67146,7.26144 1.04011,6.67379 5.71152,-0.58767 2.93448,9.77634 -1.38852,5.18201 -4.32302,-4.59434 -3.1507,4.1112 -4.2821,8.70778 -1.1314,4.59657 -8.42725,7.99863 -2.63321,8.69268 5.79404,0.69405 0.42923,9.98618 -2.68241,4.64606 -3.11163,-5.34011 -6.10155,1.64485 -6.0505,6.34796 0.0247,2.27191 -1.89902,2.88897 -4.13819,1.09854 -4.61165,-3.68746 -8.05439,4.27844 -1.99862,4.99223 4.03098,0.47511 3.0111,4.31886 1.99715,5.65577 -2.74777,3.62303 0.0102,4.90655 2.9404,4.41252 5.39406,-0.90929 3.95779,8.09319 -1.48369,3.89435 -3.6438,-2.81169 -1.66448,5.92037 -2.92612,10.46682 m 41.58919,-59.65357 c 0.007,0.21308 0.73878,8.63892 -3.60483,4.12143 -4.34359,-4.51748 -7.12062,5.84654 -1.3885,5.18202 5.73211,-0.66453 0.85284,6.94358 0.0742,11.48524 -0.87122,5.08152 -0.38902,13.18041 -3.94393,8.60808 -3.54923,-4.58217 -8.91404,4.70995 -2.68241,4.64607 6.23732,-0.0738 0.005,3.87925 -2.94836,7.45693 m -3.31785,-1.78289 c -2.59128,3.13985 -9.23468,8.30335 -3.76229,8.30119 6.41219,-0.002 -0.0472,8.67024 -3.14895,4.16562 -2.75365,-3.99907 -5.49759,0.5808 -7.0525,3.06429 -2.51374,4.01495 -4.03333,-1.67213 -9.81614,4.40764 m 57.57099,-47.98786 c -0.30537,0.79548 -4.20775,8.52793 1.35374,8.50018 5.5615,-0.0277 2.78447,10.33626 -1.38851,5.18201 -4.17298,-5.15426 -3.48142,0.32137 -4.52639,4.7482 -1.04496,4.42684 -3.60928,11.91421 2.54848,11.97828 6.16344,0.0542 0.79863,9.34635 -2.68241,4.64607 -3.47535,-4.71014 -6.58246,-0.83651 -8.04853,3.56684 m -13.27668,0.8878 c -1.65397,2.6102 -3.65581,7.4286 2.14987,6.4896 5.80566,-0.939 3.02863,9.42502 -1.38852,5.18202 -4.41716,-4.24302 -5.94373,1.30356 -6.61539,5.83042 M 58.872727,61.09897 c -4.335155,1.584189 -8.486626,7.316701 -9.603939,1.767033 -1.107468,-5.555352 -10.399591,-0.190542 -4.646061,2.682406 5.763374,2.867262 -3.574205,5.375891 -7.312637,7.993633 M 183.33446,197.43539 c -5.11588,9.97219 -19.6885,11.64203 -17.44277,5.48676 0.18363,-5.13627 -7.51619,-3.89035 -4.57966,0.87686 2.93654,4.76724 -0.1977,1.47769 -4.3421,3.57668"
       inkscape:label="vertical" /><path
       style="display:inline;fill:none;stroke:#000000;stroke-width:0.113661;stroke-dasharray:none"
       d="m 191.59248,249.24212 c -0.85722,0.14729 -1.43549,0.62776 -1.80023,0.93849 -1.90384,1.6219 -3.58185,2.56753 -5.72799,4.51745 -0.31382,0.28512 -1.58822,0.38118 -1.70356,0.34425 -0.0286,-0.009 -0.21736,-0.14611 -0.21736,-0.14611 v 0 c 0,0 -0.29213,-0.94324 0.35587,-1.56657 0.49852,-0.47952 0.85278,-1.01396 1.23386,-1.86148 0.36839,-0.81923 0.48566,-1.4142 0.38993,-1.97779 -0.0181,-0.10628 -0.0123,-0.352 0.0128,-0.54595 l 0.0457,-0.35264 c -0.54807,-0.14605 -1.10173,-0.26908 -1.65477,-0.39503 l -3.96847,-0.88658 -0.68692,0.0568 c -0.3778,0.0313 -1.83468,0.68297 -2.0294,0.72029 -0.35354,0.0677 -0.744,0.0791 -0.91614,0.0266 -0.36956,-0.10377 -0.61938,-0.25273 -0.61783,-0.57807 7.8e-4,-0.16662 1.20082,-1.24627 1.0998,-1.47967 -0.16395,-0.37883 -1.11982,-0.74641 -1.45741,-0.95327 -1.31501,-0.80751 -2.0195,-1.32248 -2.87926,-2.10467 -0.48149,-0.43806 -0.43274,-0.41763 -1.65709,-0.69402 -0.45211,-0.10207 -0.47433,-0.11207 -0.54949,-0.24821 -0.0715,-0.12945 -0.0699,-0.1694 0.0169,-0.4552 0.0951,-0.31114 0.0949,-0.31472 -0.0239,-0.53662 -0.1325,-0.24804 -2.0364,-2.32205 -2.81299,-3.90666 -0.69556,-1.84226 -1.95344,-1.85045 -3.4013,-2.49366 -0.54508,-0.24017 -1.10501,-0.73051 -1.20726,-1.05714 -0.0877,-0.28035 -0.0646,-0.36833 0.13172,-0.50034 0.0268,-0.0181 2.19246,-0.59733 3.00026,-1.19423 0.47216,-0.34886 0.55018,-0.47352 0.68205,-1.08928 0.0617,-0.28788 0.32724,-1.65825 0.31965,-1.94885 -0.0534,-2.03419 1.07353,-3.07574 1.7685,-0.68717 0.49404,1.69796 0.64946,5.22829 0.69886,5.40592 0.0485,0.17426 0.85177,0.96788 1.78349,1.76206 l 0.66871,0.57 0.27625,-0.002 c 0.47993,-0.003 0.61953,-0.0479 0.69155,-0.21824 0.10798,-0.22746 0.20134,-0.67986 0.4997,-0.62968 0.14876,0.0398 0.28975,0.2333 0.70167,0.96284 0.38237,0.67719 0.50257,0.85153 0.60621,0.8793 0.13326,0.0357 0.88186,-0.006 2.96652,0.0252 1.24907,0.0185 1.25004,0.0183 1.59591,-0.38691 0.41525,-0.48641 0.42563,-0.51305 1.03944,-2.68698 0.50605,-1.79198 0.57349,-2.00285 0.68437,-2.14214 0.18433,-0.2313 0.38932,-0.30148 0.6682,-0.22862 0.33721,0.088 0.61988,0.38426 1.02536,1.07409 0.39768,0.6766 0.64386,1.23975 1.16618,2.66774 0.62095,1.69761 0.73416,1.88851 1.19262,2.01136 0.12281,0.0328 0.79522,0.11298 1.49433,0.17783 3.61033,0.33521 8.0631,0.97836 9.86038,1.40304 0.22482,0.0532 0.33947,0.0803 0.3865,0.093 l 1.7108,0.44642 c 1.19283,0.29514 3.57384,1.44288 4.37014,2.10653 0.39185,0.32662 0.793,0.79144 0.95174,1.10292 0.11196,0.2198 0.14085,0.34744 0.14494,0.64167 0.005,0.32267 -0.0199,0.46037 -0.20097,1.13254 -0.19455,0.72339 -0.21637,0.78118 -0.40566,1.05377 -0.17594,0.2545 -0.20019,0.31218 -0.20442,0.48864 -0.008,0.31952 -0.13086,0.54851 -0.48056,0.8935 -0.99273,0.75211 -2.0241,1.78988 -3.21675,2.06979 -0.42711,0.10025 -0.92318,0.20847 -1.85956,0.13021 -2.96804,-0.24806 -2.17715,-0.15798 -4.5617,0.25175 z"
       id="path1-5"
       sodipodi:nodetypes="ssscsssssscccsscssssscsssssssssssscsssssssssssssssccssscssssss"
       inkscape:label="mini shark" /></g><g
     inkscape:groupmode="layer"
     id="layer4"
     inkscape:label="Layer 2"
     transform="translate(0.46923814,0.05000469)"
     style="display:inline"><rect
       style="fill:none;stroke:#000000;stroke-width:0.0254;stroke-dasharray:none"
       id="rect1"
       width="134.83929"
       height="107.8393"
       x="-144.8826"
       y="180.51672"
       transform="rotate(-90)" /><path
       style="fill:none;stroke:#000000;stroke-width:0.0254;stroke-dasharray:none"
       d="m 180.43638,54.962936 h 108"
       id="path1-6"
       sodipodi:nodetypes="cc" /><path
       style="fill:none;stroke:#000000;stroke-width:0.0254;stroke-dasharray:none"
       d="M 219.43638,54.962936 V 9.9629365"
       id="path2"
       sodipodi:nodetypes="cc" /><path
       style="fill:none;stroke:#000000;stroke-width:0.0254;stroke-dasharray:none"
       d="m 219.43638,30.962936 h 69"
       id="path3-0"
       sodipodi:nodetypes="cc" /><path
       style="fill:none;stroke:#000000;stroke-width:0.0254;stroke-dasharray:none"
       d="M 192.43638,144.96294 V 84.962936"
       id="path4"
       sodipodi:nodetypes="cc" /><path
       style="fill:none;stroke:#000000;stroke-width:0.0254;stroke-dasharray:none"
       d="m 180.43638,84.962936 h 69"
       id="path5"
       sodipodi:nodetypes="cc" /><path
       style="fill:none;stroke:#000000;stroke-width:0.0254;stroke-dasharray:none"
       d="m 192.43638,114.96294 h 96"
       id="path6"
       sodipodi:nodetypes="cc" /><path
       style="fill:none;stroke:#000000;stroke-width:0.0254;stroke-dasharray:none"
       d="m 198.43638,144.96294 v -30"
       id="path7"
       sodipodi:nodetypes="cc" /><path
       style="fill:none;stroke:#000000;stroke-width:0.0254;stroke-dasharray:none"
       d="m 243.43638,144.96294 v -30"
       id="path8"
       sodipodi:nodetypes="cc" /><path
       style="fill:none;stroke:#000000;stroke-width:0.0254;stroke-dasharray:none"
       d="M 228.43638,114.96294 V 84.962936"
       id="path9"
       sodipodi:nodetypes="cc" /><path
       style="fill:none;stroke:#000000;stroke-width:0.0254;stroke-dasharray:none"
       d="m 228.43638,99.962936 h 60"
       id="path10-2"
       sodipodi:nodetypes="cc" /><path
       style="fill:none;stroke:#000000;stroke-width:0.0254;stroke-dasharray:none"
       d="m 249.43638,99.962936 v -45"
       id="path11"
       sodipodi:nodetypes="cc" /><path
       style="fill:none;stroke:#000000;stroke-width:0.0254;stroke-dasharray:none"
       d="m 240.43638,84.962936 v -30"
       id="path12"
       sodipodi:nodetypes="cc" /><text
       xml:space="preserve"
       style="font-style:normal;font-variant:normal;font-weight:normal;font-stretch:normal;font-size:4.064px;line-height:1;font-family:'Cambria Math';-inkscape-font-specification:'Cambria Math, Normal';font-variant-ligatures:normal;font-variant-caps:normal;font-variant-numeric:normal;font-variant-east-asian:normal;text-align:center;letter-spacing:0px;word-spacing:0.560917px;writing-mode:lr-tb;direction:ltr;text-anchor:middle;fill:#000000;stroke:none;stroke-width:0.2"
       x="-128.97791"
       y="197.01935"
       id="text12"
       transform="rotate(-90)"><tspan
         sodipodi:role="line"
         style="font-style:normal;font-variant:normal;font-weight:normal;font-stretch:normal;font-size:4.064px;font-family:'Cambria Math';-inkscape-font-specification:'Cambria Math, Normal';font-variant-ligatures:normal;font-variant-caps:normal;font-variant-numeric:normal;font-variant-east-asian:normal;fill:#000000;stroke:none;stroke-width:0.2"
         x="-128.97791"
         y="197.01935"
         id="tspan14">10x2</tspan></text><text
       xml:space="preserve"
       style="font-style:normal;font-variant:normal;font-weight:normal;font-stretch:normal;font-size:4.064px;line-height:1;font-family:'Cambria Math';-inkscape-font-specification:'Cambria Math, Normal';font-variant-ligatures:normal;font-variant-caps:normal;font-variant-numeric:normal;font-variant-east-asian:normal;text-align:center;letter-spacing:0px;word-spacing:0.560917px;writing-mode:lr-tb;direction:ltr;text-anchor:middle;fill:#000000;stroke:none;stroke-width:0.2"
       x="238.9426"
       y="98.198059"
       id="text12-5"><tspan
         sodipodi:role="line"
         style="font-style:normal;font-variant:normal;font-weight:normal;font-stretch:normal;font-size:4.064px;font-family:'Cambria Math';-inkscape-font-specification:'Cambria Math, Normal';font-variant-ligatures:normal;font-variant-caps:normal;font-variant-numeric:normal;font-variant-east-asian:normal;fill:#000000;stroke:none;stroke-width:0.2"
         x="238.9426"
         y="98.198059"
         id="tspan13-7">7x5</tspan></text><text
       xml:space="preserve"
       style="font-style:normal;font-variant:normal;font-weight:normal;font-stretch:normal;font-size:4.064px;line-height:1;font-family:'Cambria Math';-inkscape-font-specification:'Cambria Math, Normal';font-variant-ligatures:normal;font-variant-caps:normal;font-variant-numeric:normal;font-variant-east-asian:normal;text-align:center;letter-spacing:0px;word-spacing:0.560917px;writing-mode:lr-tb;direction:ltr;text-anchor:middle;fill:#000000;stroke:none;stroke-width:0.2"
       x="-115.01852"
       y="190.67018"
       id="text15"
       transform="rotate(-90)"><tspan
         sodipodi:role="line"
         id="tspan15"
         style="font-style:normal;font-variant:normal;font-weight:normal;font-stretch:normal;font-size:4.064px;font-family:'Cambria Math';-inkscape-font-specification:'Cambria Math, Normal';font-variant-ligatures:normal;font-variant-caps:normal;font-variant-numeric:normal;font-variant-east-asian:normal;stroke-width:0.2"
         x="-115.01852"
         y="190.67018">20x4</tspan></text><text
       xml:space="preserve"
       style="font-style:normal;font-variant:normal;font-weight:normal;font-stretch:normal;font-size:4.064px;line-height:1;font-family:'Cambria Math';-inkscape-font-specification:'Cambria Math, Normal';font-variant-ligatures:normal;font-variant-caps:normal;font-variant-numeric:normal;font-variant-east-asian:normal;text-align:center;letter-spacing:0px;word-spacing:0.560917px;writing-mode:lr-tb;direction:ltr;text-anchor:middle;display:inline;fill:#000000;stroke:none;stroke-width:0.2"
       x="220.90718"
       y="143.19806"
       id="text16"><tspan
         sodipodi:role="line"
         style="font-style:normal;font-variant:normal;font-weight:normal;font-stretch:normal;font-size:4.064px;font-family:'Cambria Math';-inkscape-font-specification:'Cambria Math, Normal';font-variant-ligatures:normal;font-variant-caps:normal;font-variant-numeric:normal;font-variant-east-asian:normal;display:inline;stroke-width:0.2"
         x="220.90718"
         y="143.19806"
         id="tspan17">15x10</tspan></text><text
       xml:space="preserve"
       style="font-style:normal;font-variant:normal;font-weight:normal;font-stretch:normal;font-size:4.064px;line-height:1;font-family:'Cambria Math';-inkscape-font-specification:'Cambria Math, Normal';font-variant-ligatures:normal;font-variant-caps:normal;font-variant-numeric:normal;font-variant-east-asian:normal;text-align:center;letter-spacing:0px;word-spacing:0.560917px;writing-mode:lr-tb;direction:ltr;text-anchor:middle;fill:#000000;stroke:none;stroke-width:0.2"
       x="265.9072"
       y="143.19806"
       id="text16-9"><tspan
         sodipodi:role="line"
         style="font-style:normal;font-variant:normal;font-weight:normal;font-stretch:normal;font-size:4.064px;font-family:'Cambria Math';-inkscape-font-specification:'Cambria Math, Normal';font-variant-ligatures:normal;font-variant-caps:normal;font-variant-numeric:normal;font-variant-east-asian:normal;stroke-width:0.2"
         x="265.9072"
         y="143.19806"
         id="tspan17-2">15x10</tspan></text><text
       xml:space="preserve"
       style="font-style:normal;font-variant:normal;font-weight:normal;font-stretch:normal;font-size:4.064px;line-height:1;font-family:'Cambria Math';-inkscape-font-specification:'Cambria Math, Normal';font-variant-ligatures:normal;font-variant-caps:normal;font-variant-numeric:normal;font-variant-east-asian:normal;text-align:center;letter-spacing:0px;word-spacing:0.560917px;writing-mode:lr-tb;direction:ltr;text-anchor:middle;display:inline;fill:#000000;stroke:none;stroke-width:0.2"
       x="258.47079"
       y="113.19806"
       id="text18"><tspan
         sodipodi:role="line"
         style="font-style:normal;font-variant:normal;font-weight:normal;font-stretch:normal;font-size:4.064px;font-family:'Cambria Math';-inkscape-font-specification:'Cambria Math, Normal';font-variant-ligatures:normal;font-variant-caps:normal;font-variant-numeric:normal;font-variant-east-asian:normal;display:inline;stroke-width:0.2"
         x="258.47079"
         y="113.19806"
         id="tspan19">20x5</tspan></text><text
       xml:space="preserve"
       style="font-style:normal;font-variant:normal;font-weight:normal;font-stretch:normal;font-size:4.064px;line-height:1;font-family:'Cambria Math';-inkscape-font-specification:'Cambria Math, Normal';font-variant-ligatures:normal;font-variant-caps:normal;font-variant-numeric:normal;font-variant-east-asian:normal;text-align:center;letter-spacing:0px;word-spacing:0.560917px;writing-mode:lr-tb;direction:ltr;text-anchor:middle;fill:#000000;stroke:none;stroke-width:0.2"
       x="-77.478134"
       y="286.67184"
       id="text20"
       transform="rotate(-90)"><tspan
         sodipodi:role="line"
         id="tspan20"
         style="font-style:normal;font-variant:normal;font-weight:normal;font-stretch:normal;font-size:4.064px;font-family:'Cambria Math';-inkscape-font-specification:'Cambria Math, Normal';font-variant-ligatures:normal;font-variant-caps:normal;font-variant-numeric:normal;font-variant-east-asian:normal;stroke-width:0.2"
         x="-77.478134"
         y="286.67184">15x13</tspan></text><text
       xml:space="preserve"
       style="font-style:normal;font-variant:normal;font-weight:normal;font-stretch:normal;font-size:4.064px;line-height:1;font-family:'Cambria Math';-inkscape-font-specification:'Cambria Math, Normal';font-variant-ligatures:normal;font-variant-caps:normal;font-variant-numeric:normal;font-variant-east-asian:normal;text-align:center;letter-spacing:0px;word-spacing:0.560917px;writing-mode:lr-tb;direction:ltr;text-anchor:middle;fill:#000000;stroke:none;stroke-width:0.2"
       x="253.9158"
       y="53.198071"
       id="text21"><tspan
         sodipodi:role="line"
         id="tspan21"
         style="font-style:normal;font-variant:normal;font-weight:normal;font-stretch:normal;font-size:4.064px;font-family:'Cambria Math';-inkscape-font-specification:'Cambria Math, Normal';font-variant-ligatures:normal;font-variant-caps:normal;font-variant-numeric:normal;font-variant-east-asian:normal;stroke-width:0.2"
         x="253.9158"
         y="53.198071">23x8</tspan></text><text
       xml:space="preserve"
       style="font-style:normal;font-variant:normal;font-weight:normal;font-stretch:normal;font-size:4.064px;line-height:1;font-family:'Cambria Math';-inkscape-font-specification:'Cambria Math, Normal';font-variant-ligatures:normal;font-variant-caps:normal;font-variant-numeric:normal;font-variant-east-asian:normal;text-align:center;letter-spacing:0px;word-spacing:0.560917px;writing-mode:lr-tb;direction:ltr;text-anchor:middle;fill:#000000;stroke:none;stroke-width:0.2"
       x="253.9158"
       y="29.198069"
       id="text22"><tspan
         sodipodi:role="line"
         id="tspan22"
         style="font-style:normal;font-variant:normal;font-weight:normal;font-stretch:normal;font-size:4.064px;font-family:'Cambria Math';-inkscape-font-specification:'Cambria Math, Normal';font-variant-ligatures:normal;font-variant-caps:normal;font-variant-numeric:normal;font-variant-east-asian:normal;stroke-width:0.2"
         x="253.9158"
         y="29.198069">23x7</tspan></text><text
       xml:space="preserve"
       style="font-style:normal;font-variant:normal;font-weight:normal;font-stretch:normal;font-size:4.064px;line-height:1;font-family:'Cambria Math';-inkscape-font-specification:'Cambria Math, Normal';font-variant-ligatures:normal;font-variant-caps:normal;font-variant-numeric:normal;font-variant-east-asian:normal;text-align:center;letter-spacing:0px;word-spacing:0.560917px;writing-mode:lr-tb;direction:ltr;text-anchor:middle;fill:#000000;stroke:none;stroke-width:0.2"
       x="-31.080118"
       y="217.57181"
       id="text23"
       transform="rotate(-90)"><tspan
         sodipodi:role="line"
         id="tspan23"
         style="font-style:normal;font-variant:normal;font-weight:normal;font-stretch:normal;font-size:4.064px;font-family:'Cambria Math';-inkscape-font-specification:'Cambria Math, Normal';font-variant-ligatures:normal;font-variant-caps:normal;font-variant-numeric:normal;font-variant-east-asian:normal;stroke-width:0.2"
         x="-31.080118"
         y="217.57181">15x13</tspan></text><text
       xml:space="preserve"
       style="font-style:normal;font-variant:normal;font-weight:normal;font-stretch:normal;font-size:4.064px;line-height:1;font-family:'Cambria Math';-inkscape-font-specification:'Cambria Math, Normal';font-variant-ligatures:normal;font-variant-caps:normal;font-variant-numeric:normal;font-variant-east-asian:normal;text-align:center;letter-spacing:0px;word-spacing:0.560917px;writing-mode:lr-tb;direction:ltr;text-anchor:middle;fill:#000000;stroke:none;stroke-width:0.2"
       x="210.43657"
       y="83.198059"
       id="text24"><tspan
         sodipodi:role="line"
         id="tspan24"
         style="font-style:normal;font-variant:normal;font-weight:normal;font-stretch:normal;font-size:4.064px;font-family:'Cambria Math';-inkscape-font-specification:'Cambria Math, Normal';font-variant-ligatures:normal;font-variant-caps:normal;font-variant-numeric:normal;font-variant-east-asian:normal;stroke-width:0.2"
         x="210.43657"
         y="83.198059">20x10</tspan></text><text
       xml:space="preserve"
       style="font-style:normal;font-variant:normal;font-weight:normal;font-stretch:normal;font-size:4.064px;line-height:1;font-family:'Cambria Math';-inkscape-font-specification:'Cambria Math, Normal';font-variant-ligatures:normal;font-variant-caps:normal;font-variant-numeric:normal;font-variant-east-asian:normal;text-align:center;letter-spacing:0px;word-spacing:0.560917px;writing-mode:lr-tb;direction:ltr;text-anchor:middle;fill:#000000;stroke:none;stroke-width:0.2"
       x="210.33218"
       y="113.19806"
       id="text25"><tspan
         sodipodi:role="line"
         id="tspan25"
         style="font-style:normal;font-variant:normal;font-weight:normal;font-stretch:normal;font-size:4.064px;font-family:'Cambria Math';-inkscape-font-specification:'Cambria Math, Normal';font-variant-ligatures:normal;font-variant-caps:normal;font-variant-numeric:normal;font-variant-east-asian:normal;stroke-width:0.2"
         x="210.33218"
         y="113.19806">12x10</tspan></text><text
       xml:space="preserve"
       style="font-style:normal;font-variant:normal;font-weight:normal;font-stretch:normal;font-size:4.064px;line-height:1;font-family:'Cambria Math';-inkscape-font-specification:'Cambria Math, Normal';font-variant-ligatures:normal;font-variant-caps:normal;font-variant-numeric:normal;font-variant-east-asian:normal;text-align:center;letter-spacing:0px;word-spacing:0.560917px;writing-mode:lr-tb;direction:ltr;text-anchor:middle;fill:#000000;stroke:none;stroke-width:0.2"
       x="-69.977921"
       y="247.6702"
       id="text26"
       transform="rotate(-90)"><tspan
         sodipodi:role="line"
         id="tspan26"
         style="font-style:normal;font-variant:normal;font-weight:normal;font-stretch:normal;font-size:4.064px;font-family:'Cambria Math';-inkscape-font-specification:'Cambria Math, Normal';font-variant-ligatures:normal;font-variant-caps:normal;font-variant-numeric:normal;font-variant-east-asian:normal;stroke-width:0.2"
         x="-69.977921"
         y="247.6702">10x3</tspan></text><rect
       style="fill:none;stroke:#000000;stroke-width:0.0254;stroke-dasharray:none"
       id="rect26"
       width="154.9005"
       height="127.90051"
       x="-154.91319"
       y="170.48613"
       transform="rotate(-90)" /></g></svg>
